<svg xmlns:svg="http://www.w3.org/2000/svg" xmlns="http://www.w3.org/2000/svg" version="1.1" viewBox="0 0 1240.7 1180.1" height="333" width="350"><style>.s0{fill:#fff;}.s1{fill:#000;}.s2{fill:none;}</style><style>.s0{fill:#000;}.s1{fill:#fff;}</style><style>.s0{fill:#000;}.s1{fill:#fff;}.s2{fill:none;stroke-width:0.1;stroke:#1a1a1a;}</style><path d="m740.7-0.1 0 0c-2.5 0-5 0.4-8.4 0.8-4.2 0.4-8.8 1.7-13.4 3.8-4.6 1.7-9.2 4.2-13.4 7.5-4.2 2.9-8 6.7-10.9 10.9-1.7 2.1-2.9 4.6-3.8 6.7-1.3 2.5-2.1 5-2.5 7.5-0.8 4.6-1.3 9.2 0 14.2 0.8 5.4 2.9 11.3 6.3 18.9 3.4 7.5 8 16.8 14.7 28.1 6.7 11.3 14.7 24.7 25.1 41.5 11.7 18.4 23.5 36 31.9 48.6 4.2 6.3 7.5 11.7 10.1 15.5 2.1 3.8 3.4 5.9 2.9 6.3-2.5 1.7-5.9 4.2-8 5.9-2.5 1.7-4.2 3.4-4.6 2.5-8.4-7.5-28.9-22.6-56.6-45.3-18.9-15.9-35.2-28.9-49.9-39.4-7.1-5.4-14.2-10.1-20.5-14.2-6.3-4.2-12.6-7.5-18.4-10.5-5.9-2.9-11.3-5.4-16.3-7.1-5-1.7-10.1-2.9-14.7-3.8-4.6-0.8-9.2-0.8-13.4-0.4-4.2 0.4-8.8 1.3-13 2.5-5 1.7-9.6 3.8-13.8 6.3-4.2 2.5-8 5.4-11.3 8.8-3.4 3.4-6.3 6.7-8.4 10.5-2.1 3.8-4.2 8-5.4 12.2-1.3 4.2-2.1 8.8-2.1 13.8 0 4.6 0.4 9.6 1.3 14.7 1.3 5 2.9 10.1 5 15.5 2.5 5 5.4 10.5 9.2 15.9 5.9 8.4 11.7 16.8 17.2 24.3 5.9 7.5 11.3 15.1 17.2 21.8 5.9 6.7 11.7 13.4 18.4 19.3 6.3 5.9 13.4 11.7 20.5 17.2 8 5.9 14.7 10.5 21 14.2 6.3 3.8 11.3 6.7 16.8 9.6l15.1 8.8c5 2.9 10.5 6.7 16.3 10.9-2.5 8-5 15.5-6.7 23.1-3.8 14.7-5.9 29.3-6.7 43.6-0.4 13.8 0 27.2 1.7 40.2 0.8 6.3 2.1 13 3.8 19.3 3.4 13 7.5 26 12.6 37.3 10.1 23.5 17.6 43.2 23.5 60.8 5.9 17.6 10.1 32.7 12.6 46.1 2.5 12.6 4.2 25.1 5 36.9 0.4 11.3 0 21.8-0.8 33.1-2.5 23.9-5.4 48.2-6.7 70.4-1.3 24.3-1.7 39-2.9 48.6-0.8 17.6-15.5 24.3-26.8 31.4-21.8 23.9-26 54.9-18.9 81.7 0.4 0.8 0.8 1.3 1.3 1.7-0.8 0-1.7 0-2.5 0.4l-559.9 172.3 197.4 90.1 754-167.6c10.1 0.8 21 1.3 30.2-2.1 21.8-3.4 36-26.4 51.1-29.8 4.6-0.8 9.6-2.5 14.2-5 4.6-2.5 8.8-5.4 12.6-9.2 3.8-3.4 6.7-7.5 8.8-11.3 1.3-2.1 2.1-3.8 2.5-5.9 0.4-2.1 0.8-3.8 0.8-5.9 0-2.9-0.8-7.5-1.7-12.6-2.1-8.4-5.4-15.9-7.1-23.9-1.3-7.1 1.3-13.8 3.8-19.7 5.9-10.5 13.4-20.1 18.4-30.6 6.3-11.7 10.5-24.7 14.2-36.5 6.3-23.5 8.8-49.9 9.6-71.2 0.8-19.3 1.3-41.1 1.3-66.2 0.4-18.4 0-36.9 2.9-53.6 1.7-12.2 6.7-23.1 8.4-34.4 2.9-23.1 6.3-46.5 8-70.4 0.8-12.2 1.7-24.3 2.1-36.5 0.4-25.6-0.8-50.3-5.9-74.2-6.3-29.8-20.5-58.7-36.9-81.7-26.4-38.6-59.1-72.5-96.4-95.1-41.1-24.7-87.2-36.9-131.6-41.5-21.4-1.7-40.7-1.7-62-1.3-3.8-2.9-7.5-7.5-11.7-13-4.2-5.9-8.8-12.6-13.8-19.7-5-7.1-10.1-15.1-15.5-22.6-5.4-7.5-11.3-15.1-17.2-21.4-8.4-10.9-16.8-21.4-25.1-31-8.4-9.6-16.3-18.4-23.9-26.4-7.5-8-14.7-14.7-20.5-20.1-6.3-5.4-11.7-9.6-15.9-12.6-5.9-3.8-10.1-5.9-14.2-7.1-2.1-0.4-4.2-0.8-6.7-0.8z" fill="#666"/><g transform="matrix(4.2255125,0,0,4.2255125,-2.976575,-3305.2267)"><g transform="translate(-1.6610183,-56.474619)"><g transform="translate(-29.898328,-80.282547)"><path d="m84.7 1153.3c0 1.9-0.2 2.8-0.4 3.6 0 0-0.9 0-1.3 1.3-0.4 1.3-1.5 14.6-1.4 14.7 0.1 0.2 0.2 1.4 0.4 2.6 0.3 1.1 4.7 4.6 11.2 4.6 2.5 0 8 1.3 8.8 2.1-0.7 0.8 9.2 6.6 15.8 6.3 2.8 0.8 14.4-1.8 16.5-3.3 3.3-1.2 7.1-4.2 7.5-5.5 0.2-1.1 0.5-3.8-0.8-5.9-1.2-1.7-3.2-2.9-4.8-3-6-1.4-8.3-2.8-11.8-4.8l-1.6-1 0.2-0.5-0.7-0.5-0.5 0.4-1.2-1 0-0.5-1.5-1-0.4 0.2-0.9-1 0.4-0.6-2.1-1.5-0.5 0.4-0.8-0.9 0-0.9-2.1-1.8-0.5 0.3-1-1.2-1.1-2.1-1.9-1.3-2.2-0.1-1.5 0.4-2.6-0.4-2.5 1.7c-1 1.8-2.2 2.4-2.9 2.3-2.4-1.7-4.8-3.8-6.3-4.6l-3.7 1c-0.6 0.6-1.2 1.1-1.8 1.7z" fill="#1a1a1a"/><path d="m116.7 1161.5c-0.8 0.6-2.1 0.4-3.3 0.6-0.2 0.7-0.6 1.6-1 2.1-0.1 0.4-0.8-0.2-0.6-0.7 0.1-0.4 0.3-1 0.3-1-1.7 0.7-3.7 1.9-4.2 2.5-0.6 0.5-1-0.9-0.9-1.5 0.4-0.1 0.6-1.3 0.2-1.2l-10.5 12.8 3.5 1.6c0.9-5.8 10-12.9 10.2-12.7 1.2-0.1 1.2 0.4 3.4 0.6 0.4 0.1 0.9-0.2 1.4-0.5 0.4-1 1.6-1.8 2.5-2.8l1 1c-0.2 0.1-0.3 0.2-0.4 0.6 0 0.6 0.6 0.6 1.4 0.6 0 0.2 0.3 0.3 0 0.7-2.9 1.1-4.7 1-6.9 2.3l-0.7 2.2 2.4 1.3c0 0 1.3-0.3 1.3-0.8 0-0.5 0.4-0.9 0.4-0.9l1.3 0.3 1.6-2.1-2.6 1.1-1.9 1.3c-0.7-0.2-0.5-0.8-0.5-1.4l1-0.5c0.3-0.8 1.7-1.3 3.1-1.6l1.9-0.7 0.6-0.9 3.5 2.3c0 0.3-2.6 2.1-3.6 2.8l-0.4 0.6 1.9 0.1 1.5-1.4c0.2-0.3 0.5-0.6 0.8-1 0-0.3 0-0.7-0.2-0.8-0.1-0.1 0-0.1 0-0.2l2.6 1.5c3.5 1.9 7 3.1 11.9 4.2 1.6 1.4 3.5 2.8 1.6 4.3-3.1 2.6-5.6 2.6-8.4 3.7l-6.9 2c-2.8 0.2-5.4 0.7-8.2 0.5-0.1-0.4 0.4-1 0.8-1.6l2.6-3.1c0.2-0.6-0.2-0.1-0.7 0.2-0.7 0.9-1.2 1.2-1.6 1.4l-1.5 1.5c-0.3 0.6-1.5 0.9-1.7 0.7 0.7 0.4 0.9 1.8 0.6 2.9-0.2 0.7-0.5 0.6-1.5 0.5-45.9-13.2-13.8-39.2 2.9-23.4z" fill="#fff"/></g><g transform="translate(-29.898328,-80.282547)"><path d="m55.9 1163.1c-0.3 0.9-0.3 0.9-0.6 3.6 0 0-0.6 0.1-1.3 1.2-0.7 1.1-1.5 14.6-1.4 14.7 0.1 0.2 0.2 1.4 0.4 2.6 0.3 1.1 4.7 4.7 11.2 4.6 2.2-0.1 7.4 1.2 8.8 2.1 0.9 1.6 9.2 7 15.8 6.3 2.8 0.8 14.4-1.8 16.5-3.3 3.3-1.2 7.1-4.2 7.5-5.5 0.2-1.1 0.5-3.8-0.8-5.9-1.2-1.7-3.2-2.9-4.8-3-6-1.4-8.3-2.8-11.8-4.8l-1.6-1 0.2-0.5-0.7-0.5-0.5 0.4-1.2-1 0-0.5-1.5-1-0.4 0.2-0.9-1 0.4-0.6-2.1-1.5-0.5 0.4-0.8-0.9 0-0.9-2.1-1.8-0.5 0.3-1-1.2c-0.2-1.2-0.8-1.9-1.7-2.2-1.1-1.1-1.6-1.2-2.9-1.2-1.2-0.3-1.2 0.2-1.5 0.5-1.6-0.4-3.6-0.6-4.3 0.3-2 1.1-3.1 4.3-4.7 2.7-2.4-1.8-3.2-3.3-6.5-4.3-2.3 0.3-3.7 1.3-4.7 2.7z" fill="#000"/><path d="m54 1167.7c-0.3 0.9 3.7 7.1 5.6 6.8 1 0.5 5.8-3 5.8-3 7.4-9.5 15.6-2 20.7-1.5 0.1 0.5 0.9 0.8 1.5 0.8 0.3 0 0.1 0.6 0.1 0.6-0.8 0.6-2.1 0.4-3.3 0.6-0.2 0.7-0.6 1.6-1 2.1-0.1 0.4-0.8-0.2-0.6-0.7 0.1-0.4 0.3-1 0.3-1-1.7 0.7-3.7 1.9-4.2 2.5-0.6 0.5-1-0.9-0.9-1.5l3.1-1.9c-0.4 0.2-1.3 0.2-1.4-0.3 0-2.4-2.1-0.6-3.6-0.1 0.8-0.1 1.3 0 1.6 0.2l0.5 0.9-6.2 6.8-4.4 5.9 3.5 1.6c0.9-5.8 10-12.9 10.2-12.7 1.2-0.1 1.2 0.4 3.4 0.6 0.4 0.1 0.9-0.2 1.4-0.5 0.4-1 1.6-1.8 2.5-2.8l1 1c-0.2 0.1-0.3 0.2-0.4 0.6 0 0.6 0.6 0.6 1.4 0.6 0 0.2 0.3 0.3 0 0.7-2.9 1.1-4.7 1-6.9 2.3l-0.7 2.2 2.4 1.3c0 0 1.3-0.3 1.3-0.8 0-0.5 0.4-0.9 0.4-0.9l1.3 0.3 1.6-2.1-2.6 1.1-1.9 1.3c-0.7-0.2-0.5-0.8-0.5-1.4l1-0.5c0.3-0.8 1.7-1.3 3.1-1.6l1.9-0.7 0.6-0.9 3.5 2.3c0 0.3-2.6 2.1-3.6 2.8l-0.4 0.6 1.9 0.1 1.5-1.4c0.2-0.3 0.5-0.6 0.8-1 0-0.3 0-0.7-0.2-0.8-0.1-0.1 0-0.1 0-0.2l2.6 1.5c3.5 1.9 7 3.1 11.9 4.2 1.6 1.4 3.5 2.8 1.6 4.3-3.1 2.6-5.6 2.6-8.4 3.7l-6.9 2c-2.8 0.2-5.4 0.7-8.2 0.5-0.1-0.4 0.4-1 0.8-1.6l2.6-3.1c0.2-0.6-0.2-0.1-0.7 0.2-0.7 0.9-1.2 1.2-1.6 1.4l-1.5 1.5c-0.3 0.6-1.5 0.9-1.7 0.7 0.7 0.4 0.9 1.8 0.6 2.9-0.2 0.7-0.5 0.6-1.5 0.5-2.6-1-4.7-2.7-7.9-2.9-1.8-0.3-2.1-0.7-2.7-1.1-2.7-1.5-5.4-3-9.1-4.3-1-0.2-2.4-0.7-3-0.5-0.8 0.8 0.6 1.1 1.3 1.9-0.5 0.5-1.8-0.2-2.7-0.3-3.9 0.3-6.6-1.6-6.3-2.1-1.2-1.2-1-2.1-1.4-3.2 0.7-7.4 0.6-9.2 1.1-14.5z" fill="#fff"/><path d="m71.6 1186.1c-0.3-1.3 4-8.3 9.6-12 0.9-0.4 0.1-0.3 2.2 0.4" style="fill:none;stroke-dasharray:0.4;stroke-width:0.1;stroke:#333"/><path d="m60.9 1176.2c1.2 0.1 8.1-5.3 9.7-5.4 4 1.3 2.9 2.7 3.2 2.7-1.5 1.3-6.9 6.2-7.2 10.5" style="fill:none;stroke-dasharray:0.3;stroke-width:0.2;stroke:#000"/><path d="m60.7 1174.9c3-2.2 6.5-2.7 5.6-5.8" style="fill:none;stroke-dasharray:0.4;stroke-width:0.1;stroke:#000"/><path d="m80.7 1181.8c0 0-3.4 3-3.2 3.9 0.1 0.7 2.2-1.4 2.2-1.4 0.7-1.1 1.2-1.6 1.6-2.1m1.8 0.9 0 0c-0.2-0.1-3.4 5-2.5 5.5 1.2 0.1 1.3-3.1 2.7-4.4 0.1-0.3 0.2-0.5 0.4-0.7m1.8 0.3c0 0-1.6 6.3-1.1 6.5 0.5 0.7 1.4-4.6 1.5-4.7l0.3-1.3" class="s2" style="fill:none;stroke-width:0.1;stroke:#1a1a1a"/><path d="m82.7 1177.5c-0.2 1.3-0.5 2 0.4 2.2 3.3 2.7 5.4-1.7 5.3-1.1" style="fill:none;stroke-dasharray:0.3;stroke-width:0.1;stroke:#333"/><path d="m60.6 1181.8c-0.9-0.6-5.2-8-6.1-9.8 1.1 1.6 3.6 5 4.8 6.6 0.3 0.5 1.1 2.4 1.2 3.2zm29.3-1.5 0 0c-0.2 1.7 0.6 5.8 6.8 5.5 1.9 0.2 10.6-0.9 12.2-3.8-5.7 4.3-17.5 5.2-18.7 0z" fill="#000"/></g></g><path d="m24.2 853.8c32.7 6.7 47.2 14.4 67.9-2.3 2.3 0.6 4.6 1.2 7 1.8 19.3 5-3.3 87.8-1.9 86.8-2.6 37.4 1.9 86.8 1.9 86.8-7.6-4-37.8-1.5-38.4 5-4.3 1.6-27.9 6-46.4-1.3 3.1-2 7.1-31.2 2-85.7 0 0-32.4-30.4-3.8-87.9 2.9-1.5 9.3-3.1 11.7-3.2z" fill="#000"/></g><path d="m298.9 394.7c-16.3 1.7-33.5 6.3-41.5 15.5-8.4 9.6-15.1 32.7-19.3 67.5-4.2 36-2.5 69.6 12.6 88 14.7 17.6 36.9 15.9 50.3 12.2 13-3.8 20.5-10.1 27.7-21 8-11.7 18.9-33.9 23.1-64.5 4.2-30.6 0.4-61.2-9.6-78.8-10.5-18-25.6-20.5-43.2-18.4zm-17.2 19.3c2.5 0 3.8 1.7 4.6 4.2 0.4 1.7 0.4 8 0 20.5-0.4 13-0.4 20.1 1.3 20.1 0.4 0 1.3 0 2.1-0.4 0.4 0 0.8-0.4 1.3-0.4 1.3-0.8 2.5-1.3 3.4-1.7 0.8-0.4 3.4-0.4 6.7-0.4 6.7 0 11.3 5.9 12.6 18.9 2.1 16.8-0.4 27.7-0.8 60.4 0 2.9 0 5.4-0.4 6.7-0.4 1.7-1.3 2.1-2.9 2.1-1.3 0-2.9-2.5-3.4-8.4-0.4-3.4-0.8-11.3-0.4-26 0.4-15.1 0.8-23.5 0.4-28.1-2.1-6.7-4.6-10.9-7.5-12.2 0 0 0 0 0 0-5 0-8.8 4.2-11.7 12.6-1.3 3.8-2.9 14.2-3.8 28.9-0.8 14.7-1.3 24.3-1.7 27.2-0.4 6.7-1.7 10.1-3.8 10.5-1.7 0.4-2.5 0-3.4-1.3-0.8-1.3-1.3-4.2-1.3-9.6 0-0.8 0-2.1 0-2.9 0-2.1 0-4.2 0-6.3 0-3.4 0.4-8.4 0.4-9.6 0-2.1 0.4-4.2 0.4-6.3 0-2.1 0.4-4.2 0.4-6.3 0.4-4.2 0.4-8.8 0.8-13 0-1.3 0-2.1 0.4-3.4 0-2.1 0.4-4.2 0.4-6.7 0-1.3 0-2.1 0.4-3.4 0-2.1 0.4-4.2 0.4-6.3 0-1.3 0-2.1 0.4-3.4 0-2.1 0.4-4.2 0.4-6.3 0-0.8 0-2.1 0.4-2.9 0-2.1 0.4-4.2 0.4-5.9 0-2.9 0.4-5.9 0.4-8.8 0.8-15.9 0.8-23.9 1.7-27.7 0.4-3.4 1.7-4.6 3.4-4.6 0 0 0 0 0 0z" fill="#800000"/><path d="m204 198.2c-15.9 0.4-24.7 0-31-2.1-8.4-2.9-12.2-7.5-16.3-20.1-2.9-9.2-4.6-11.7-7.5-13.8-3.4-2.1-5.4-2.9-14.2-3.4-9.6-0.4-32.7-2.5-46.1-4.2-12.6-1.7-15.9-1.7-20.5-1.3-3.8 0-3.8 0.4-4.6 1.3-1.3 1.7-0.8 2.9 2.1 13.8 2.9 11.7 3.8 15.1 3.8 19.7 0 4.6 0 5-1.3 5.9-1.7 0.8-2.9 0.4-4.6-1.3-2.5-3.8-3.8-8.4-2.9-10.5 0.4-0.8 0.4-1.3-1.3-8.8-4.2-18-4.2-23.9-0.4-28.1 5.9-7.1 38.6-16.8 69.6-20.5 5.9-0.8 12.2-1.7 13.8-2.1 1.7-0.4 12.2-3.4 23.5-6.7 34.4-10.1 41.1-11.3 65-13.8 18.9-2.1 26.4-2.1 43.2-0.8 10.5 0.8 15.5 0.8 21.4-0.4 5-0.8 8.8-2.1 21.4-7.5 18-7.5 33.9-12.6 46.5-13.8 3.8-0.4 8-0.8 9.6-0.8 2.9 0 19.3 2.1 21 2.5 0.4 0 0.8 0.8 1.3 1.7 0.8 2.1 3.8 31.4 3.8 33.1 0 0.8-0.4 2.9-0.8 5-0.4 1.7-0.8 5.4-0.8 8-2.1 21-5.4 29.8-14.7 35.2-5 2.9-9.6 5-17.2 6.3-5.4 1.3-20.1 1.3-26.8 0.4-10.5-1.3-23.5-13-30.2-27.2-1.7-2.9-1.7-4.2-2.1-7.5-0.4-3.8-0.4-4.2 0.4-6.3 0.8-2.5 0.8-4.6-0.4-6.7-0.8-1.3-1.3-1.3-2.5-1.7-3.4-0.4-8.4 1.7-10.1 4.2-0.8 1.3-1.7 4.2-3.8 12.6-7.5 33.5-14.2 42.7-35.2 50.3-13 4.6-35.2 8.4-50.3 9.2z" fill="none"/><rect width="417.7" height="167.6" x="52.5" y="64.9" fill="none"/><g transform="matrix(1.2050167,-0.0674834,0.0674834,1.2050167,581.35616,-32.728931)"><path d="m-290.8 321.1c-20 0.2-37.6-7.5-52.6-22.8-9.8-10-31.1-24.6-49.7-33.9-16.6-8.4-28.5-16.5-33-22.4-2.7-3.6-3.4-5.2-4.4-11.6-1.8-10.4 0-15.8 10.6-32.4 4.5-7.1 8.5-14.1 8.9-15.7 0.6-2.5 0.2-3.9-2.9-11.2-5.7-13.3-7.4-28.7-4.1-36.1 0.6-1.4 1-4.1 0.8-5.9-0.2-1.8 0.1-4.1 0.6-5 2-3.3 2.8-7.6 4.3-25.8 1.9-22.7 2.7-27 6.3-34.6 7.5-15.7 22.4-27.7 43-34.7 7.1-2.4 12.5-3.5 33.6-6.6 44.8-6.6 57.9-7.1 73-2.7 10.7 3.1 22.2 11.2 28.5 20 5.5 7.7 10.7 18.6 14.2 29.6 4.1 13 7.5 22.7 9.3 27 0.9 2.1 1.8 5.6 2 7.6 0.3 3.5 0.2 3.9-2.6 5l-2.9 1.2 1.9 7.4c1.1 4.1 3.3 11.8 5 17.2 1.7 5.4 3.6 13.1 4.4 17.1 1.2 6.2 1.2 7.9 0.1 10.8l-1.3 3.5 2.8 6.4c1.5 3.5 3.1 8.2 3.5 10.4 0.5 2.9 1.2 4.4 2.6 5.3 1 0.7 3.4 3.4 5.3 6.2 3.1 4.6 3.5 5.8 5.4 16.2 1.9 10.8 2.2 11.5 6.7 18.9 4.1 6.8 4.9 8.8 6.6 17 3.1 14.4 1.8 23.6-4.8 34.6-8 13.2-25.9 23.7-40.6 23.7-7.1 0-18.5-0.9-22.3-3-2.5-1.4-2.8-1.9-2-3.2 0.8-1.4 1.5-1.4 6.2 0.1 10.1 3.1 23.4 1.6 34.3-3.6 12.3-5.9 18.7-13.7 22.9-28l2.7-9.1-1.6-9.5c-1.4-8.2-2.1-10.5-5.2-16.1-2-3.6-4.2-7.2-5-8-1-1-1.3-2.2-1.1-4.2 0.2-1.5-0.3-6.1-0.9-10.1-1.6-9.2-3.9-12.9-10.1-16.1-2.5-1.3-4.6-2.7-4.7-3-0.1-0.4 0.2-0.6 0.6-0.4 1.3 0.5-3.2-16.9-5.5-21.1-1.9-3.5-2-4.2-1.1-5.6 1-1.5 0.6-1.5-4.3-0.4-5 1.2-5.6 1.1-9.6-1-4.9-2.6-7.9-5.3-8.9-7.9-0.4-1-0.5-1.9-0.3-1.9 0.2 0 2.7 1.4 5.6 3.2 6 3.7 12.2 5.6 15.6 4.7 3.7-1.1 4.1-4.4 1.7-12.8-1.1-3.9-3.2-12.3-4.7-18.8-2-9.1-2.9-11.8-3.8-11.6-0.6 0.1-1.1 0.5-1.1 0.8 0.7 4.6 0.6 16.1-0.2 19.2-2.7 10.5-12.2 8.3-23.2-5.4-3.9-4.9-4.4-6.1-3-8.8 0.8-1.7 2.4-2.2 14.1-4.6l13.2-2.7-0.2-2.9c-0.1-1.9-0.6-2.8-1.3-2.6-0.6 0.1-11.9 1.8-25 3.8-48.6 7.2-114.1 14.3-142 15.4-9.8 0.4-9.6 0.3-7.4 2.8l1.9 2.1-2.3-1.4-2.3-1.4 1.3 1.7c2.2 2.9 1.7 3.1-1.8 0.5-1.8-1.4-2.6-1.8-1.6-1 2.5 2.3 4.3 4.8 4.5 6.6 0.1 0.9-0.8 0.1-2-1.7-1.2-1.8-2.7-3.5-3.3-3.7-0.6-0.2-0.1 0.9 1.2 2.6 4.1 5.5 6.9 13.2 9 24.6 2.3 12.8 1.9 17.8-1.5 23.1l-2.4 3.8 1.7-3.5c3-6.1 3.3-10.7 1.4-21.8-2.8-16.1-6.3-24.2-13.1-29.6-2.2-1.8-4.1-3.6-4.2-4-0.1-0.4 0.1-3.3 0.3-6.5l0.5-5.8 5-0.4c12.2-0.9 23.4-2 23.6-2.3 0.1-0.2 0-3.4-0.2-7.2l-0.5-6.9 1.3 7.1c1.1 6.2 1.5 7.1 2.8 6.9 0.8-0.1 9.8-1.1 19.9-2 18.1-1.8 39.9-4.5 90.2-11.2 14.1-1.9 30.7-4 36.9-4.7 11-1.3 11.2-1.4 10-2.9-0.7-0.9-2.9-7.7-4.9-15.1-2-7.4-4.8-16.3-6.1-19.8-6.9-18-19.3-30.4-35-35-13.6-4.1-24.4-4-61.2 0.6-42.6 5.2-65 14.4-77.2 31.5-7.2 10.1-9.3 18.2-11.2 42.6-0.9 11.8-2.3 22-3.3 25.3-2.3 7.3-2.1 8 1.9 7.4 1.8-0.3 4.1-0.3 5.1 0 1.4 0.4 0.9 0.5-1.7 0.7-1.9 0.1-4.1 0.6-4.7 1.2-0.9 0.9-0.7 1 1.2 0.7 4.9-0.8 11.9 5.7 14 12.9l1.1 3.7-1.4-3.1c-3.6-8.1-9.9-13.2-15-12.4-1.6 0.3-3.1 0.9-3.3 1.5-0.3 0.6 0.3 0.7 1.6 0.1 1.1-0.5 2.4-0.5 2.8-0.1 0.5 0.5-0.1 1-1.5 1.2-3 0.5-5 3.6-5 7.7 0 1.9 0 4.1 0 4.9 0 1.2 0.5 1.5 2.6 1.1 1.4-0.2 4.1 0.2 5.9 0.9 4.4 1.8 3.6 2.4-1.1 0.8-2.1-0.7-4.4-1-5.1-0.5-1.8 1.1-2.6 5.1-1.6 8.8l0.8 3 0.2-2.7c0.5-5.9 1-6.1 1.7-0.7 0.7 5.1 0.7 5.2 0.7 1.6l0-4 1 5c0.5 2.7 1.3 4.9 1.7 4.8 0.4-0.1 0.4-1 0-2.1-0.4-1.1-0.6-3.3-0.4-5.1 0.3-2.9 0.4-2.6 1.4 2.7 0.6 3.2 1.4 5.8 1.7 5.7 0.4-0.1 0.3-1.6-0.2-3.3-0.5-1.8-0.6-4.2-0.3-5.5 0.4-2 0.7-1.6 1.6 2.9l1 5.2-0.2-5.1c-0.3-6.9 0.2-7.1 1.3-0.4 0.9 5.2 2.7 8.3 3.9 6.6 0.3-0.4 0.2-3.7-0.2-7.5-0.5-4.8-0.4-6.2 0.3-4.7 0.5 1.2 1.2 4.7 1.4 7.8l0.4 5.7-3.3 0.5c-3.6 0.5-9.5-2.2-12-5.5-2.2-3-1.4 0.2 2 7.5 4.3 9.3 3.9 10.8-6.3 25.8-10.8 15.7-13 21.7-11.4 30.9 0.9 5.5 1.6 7.3 4.7 11.7 3.9 5.6 7.6 8.9 8.8 7.8 0.4-0.4 0.8-0.1 0.9 0.6 0.3 1.8 2.4 2.8 5.9 2.9l3 0.1-4.7-2.5c-2.6-1.4-5.1-2.4-5.6-2.3-0.5 0.1-0.7-0.3-0.5-0.8 0.2-0.5-0.4-2-1.4-3.3-2.9-3.9-2.2-3.9 1.2-0.1 1.8 2 4.3 4 5.6 4.6 2.6 1.1 8.2 2 8.7 1.3 0.2-0.2-1.6-2-3.9-3.9-4.7-3.8-7.3-8.6-7.4-13.2 0-8.3 6-19.2 15.2-27.3 3.2-2.8 6.2-6.2 6.6-7.6l0.9-2.5 0.5 2.6c0.5 3 2.9 4.7 11.5 8.6 8.2 3.7 7.8 4.2-0.6 0.8-4-1.6-8.4-3.9-9.8-5.1l-2.6-2.2-1.6 2c-0.9 1.1-3.2 3.6-5.2 5.4-11.5 11-16.3 25-10.9 32.3 3 4.1 9.3 8.4 21.6 14.8 13.5 7 27.4 16.3 33.6 22.6 2.5 2.5 6.2 7.3 8.2 10.7 7.1 12 14.4 17.8 28.5 22.7 19.7 6.9 37.8 6.1 46.5-2 1.7-1.6 4.2-5.7 5.9-9.5 1.6-3.6 3.7-7.5 4.8-8.5 2.1-1.9 3.9-6.7 5-13 0.3-2 1.6-5.7 2.9-8.1 3.3-6.7 3.5-7.8 0.6-3.4-1.4 2.2-2.5 4.4-2.4 4.9 0.1 0.5-1.1 2.7-2.6 4.8-2.2 3.2-2.3 3.7-0.7 2.5 1.9-1.3 1.9-1.3 0.5 0.2-0.8 0.9-1.7 1.7-2 1.7-0.5 0.1-2.7 7.4-2.5 8.6 0 0.3-0.8 1.5-1.9 2.7-1.1 1.2-3.2 4.9-4.7 8.4-3.1 7.1-6.2 9.6-13.3 10.8-5.3 0.9-7.7 0.4-11.4-2.2-3.1-2.2-7.2-7.2-7.4-9.1-0.1-0.6 1.1 0.5 2.6 2.6 4 5.4 8.7 7.5 14.8 6.9 6.1-0.6 10.2-2.9 12.1-7 1.2-2.5 1.2-3 0-3.8-0.8-0.5-1.3-1.3-1.1-1.8 0.2-0.5 0.3-2.3 0.1-3.8l-0.3-2.9-1.3 2.1-1.3 2.1 0.6-2.1c0.7-2.5 0.3-2.5-2.2-0.2-1 0.9-3.1 1.8-4.6 1.9-1.6 0.1-2.9 0.7-3.3 1.5-0.4 1-0.7 0.9-1.4-0.4-2.6-5.1 6.3-12.7 11.3-9.6 1.1 0.7 1.9 0.8 1.8 0.3-0.1-0.5-1-1.2-2-1.6-7.7-2.6-16.9 8.4-10.7 12.8 1.8 1.3 6.4 0.8 9.4-1l2-1.2-1 3.5c-1 3.3-5.1 7.3-6.5 6.3-0.3-0.2 0.3-0.8 1.4-1.3 2.2-1.1 4.6-3.8 4.4-4.9-0.1-0.5-1.4-0.4-2.9 0.1-3.4 1.2-5.8 0.4-10.5-3.7-4.2-3.6-4.4-3.4-1.5 2.4 1.1 2.2 2 4.2 2.1 4.5 0.1 1.2-3.9-4.7-5.4-8-1.4-2.9-1.7-3.2-1.4-1.3 0.2 1.3 1.4 4.2 2.7 6.4 2.8 4.8 2.6 5.3-0.5 1.2-1.2-1.6-2.2-2.4-2.1-1.8 0.1 0.7-0.8 0.3-2.1-0.9-3.3-3-5-12.6-3-16.5 2.4-4.6 5.1-6.8 9.9-8 3.8-1 5.9-0.9 12.6 0.7 9.3 2.1 13 1.8 17.9-1.7 4.2-3 6.6-7 9.2-15.4 2.7-8.5 8-16 13.3-18.8 7.3-3.8 11.5-4.7 16.1-3.5 5.3 1.4 8.2 5 11.1 14.1 1.2 3.6 2.8 7.5 3.7 8.7 2 2.8 2.1 3.5 0.3 2.4-1.3-0.7-1.4-0.7-0.7 0.5 0.6 1.1 0.2 1.4-2.6 1.9-1.9 0.3-4.1 1.3-4.9 2.1-1.3 1.4-1.7 1.4-3.3-0.1l-1.8-1.6 0.3 1.9c0.2 1 0.7 2.1 1.3 2.3 0.5 0.2 1.1 1.3 1.3 2.5 0.3 1.6 0.7 1.9 1.6 1.3 0.8-0.5 1-1.4 0.5-2.8-1-2.6 1.2-4.3 6-4.6 4.6-0.3 7.5-2.3 9.2-6.6 1.6-4 4.3-4.8 9.4-2.7 7.9 3.2 12.7 7.2 13.3 11 0.2 1.6-0.1 1.3-1.8-1.2l-2.2-3.2 0.4 5.1c0.2 2.8 0.1 5.6-0.4 6.2-0.6 0.8-0.7 0.3-0.4-2.1 0.4-3-1.7-11.2-2.2-8.5-0.2 0.9-0.5 0.9-1.5 0-1-1-1.1-0.4-0.4 2.9 0.9 4.1 0.9 4.1-0.4 0.9-0.7-1.8-2-3.7-3-4.4-1.6-1.1-1.6-1.1 0.1 1.2 1 1.3 1.9 3.2 2 4.1 0.2 1.2-0.2 0.9-1.3-0.9-0.8-1.4-2.3-3.2-3.3-3.9-1.7-1.1-1.6-0.9 0.6 2.1 6.8 9.3 2.5 20.3-8.5 22.1-5.3 0.9-8.8 0-12.6-3.2-3.3-2.8-3.3-1.6 0 1.9 3.7 3.9 8 5 14.4 3.5 3-0.7 4.9-0.8 4.2-0.3-2 1.6-10.3 2.7-13.3 1.8-1.6-0.5-4.2-2-5.8-3.4-1.6-1.3-3-2.2-3.2-1.9-0.2 0.3-1.1-0.8-1.9-2.3-1.9-3.6-2.9-1.6-1.4 2.7 2.5 6.8 7.9 10 16.1 9.6 7.2-0.4 12.9-4.4 19.5-13.8 4.9-7 5.5-7.5 4.3-4.2-2 5.7-6.5 11.6-11.6 15.2-3.6 2.6-5.6 3.4-10.5 4.2-9.4 1.6-15.6-0.8-19.5-7.5l-1.2-2.1-1.4 2.5c-1.3 2.3-5.9 6.9-7.1 7.1-0.3 0 0.6-2.1 2.1-4.9 2.6-5 5.6-12.4 4.9-12.3-0.2 0-1.4 2.6-2.7 5.8-3.5 8.5-9 16.7-11.6 17.1-2.1 0.3-2 0.1 1.2-5.3 4.3-7.2 6.6-11.8 7.5-14.8 0.5-2 0.5-2-0.2-0.5-2.7 5.9-7.5 14.3-9.9 17.6l-2.9 3.9-5-1c-2.7-0.5-6.5-1.9-8.4-3l-3.4-2 2.9-4.9c3.1-5.3 8.7-18.4 8.5-19.9-0.1-0.5-1.2 1.8-2.4 5.1-1.3 3.3-3.9 8.9-5.9 12.5-2 3.6-4.7 9.6-6 13.3-3.8 10.8-9.9 16.1-21.7 18.6-3.6 0.8-7.7 1.4-9.2 1.5zm47.6-27.7c1.7-3.1 3.2-6.3 3.5-7 0.2-0.8-0.3-0.1-1.1 1.5-0.9 1.6-2.6 4.6-3.9 6.5-2.1 3.3-2.7 4.8-1.8 4.6 0.2 0 1.7-2.6 3.3-5.7zm54.1-18.2c1.9-3 2.4-4.7 2-6.8l-0.6-2.8-0.1 3.1c-0.1 1.7-0.3 2.4-0.5 1.4-0.4-1.6-0.5-1.6-1.5 0.5-1 2.1-2.1 3-6.3 5.1-4.2 2.1-3.8-6.4 0.5-9.7 1.2-0.9 1.6-1.6 1-1.5-1.9 0.3-6.1 6.9-5.7 9.1 0.5 2.7 1.5 3.8 4.3 4.4 2 0.4 2 0.5 0.6 0.8-1.6 0.3-4.3-0.6-9.7-3.3-4.1-2.1-2.1-0.3 2.5 2.2 6.5 3.5 10.1 2.8 13.6-2.6zm-6.5 1.4c0.6-0.4 1.3-0.4 1.7-0.2 0.3 0.2-0.1 0.5-1.1 0.6-1 0.1-1.3 0-0.6-0.4zm-42.4 6c0.3-1 0.4-1.9 0.2-1.8-0.2 0-0.7 0.9-1.1 2-0.3 1-0.4 1.9-0.2 1.8 0.2 0 0.7-0.9 1.1-2zm12.7-7.9c-0.3-0.2-0.7 0.3-0.9 1.2-0.3 1.3-0.1 1.4 0.6 0.4 0.5-0.7 0.6-1.4 0.3-1.7zm-55.3 9c-0.2-1.1-2.7-2.4-3.2-1.7-0.7 1 0.8 2.9 2.1 2.7 0.7-0.1 1.1-0.5 1.1-1zm80.5-16.5c0.3-0.7 0.1-0.8-0.6-0.2-0.7 0.6-0.9 0.5-0.6-0.2 0.2-0.6 0.9-1 1.6-0.9 0.6 0.1 1.9-0.7 2.9-1.8l1.8-2-2.2-0.7c-1.9-0.6-2.6-0.4-4.8 1.3-1.4 1.1-2.6 2.4-2.5 2.8 0.1 0.4 0.2 1 0.2 1.4 0.1 0.4 0.5 0.6 0.9 0.5 0.4-0.1 1.1 0.1 1.6 0.4 1 0.7 1.2 0.7 1.7-0.6zm-58.1 8.2c1.9-1.3 3.4-2.5 3.3-2.8 0-0.3-1.2 0.3-2.5 1.3-1.3 1-4 2.4-5.9 3.1-2.9 1.1-3.1 1.3-0.9 1 1.4-0.2 4.1-1.4 6-2.6zm68.3-11.1c-1-0.5-2.3-0.9-2.8-0.8-0.5 0.1 0.2 0.6 1.5 1.1 3.1 1.1 3.8 1 1.3-0.3zm-22.7-6.8c1.3-0.1 2.6-0.6 2.8-1.1 0.2-0.5 1-0.3 1.8 0.5 1.3 1.2 1.2 0.9-0.3-1.9-1-1.8-2.4-5.4-3.2-7.9-0.8-2.6-1.8-5.4-2.2-6.3-0.8-1.6-0.8-1.6-1.1 0.2-0.2 1-0.7 1.9-1.1 2-0.4 0.1-1.3 0.6-1.9 1.1-0.8 0.7-1 0.6-0.7-0.3 0.2-0.7-0.1-0.5-0.7 0.6-1.1 1.9-1.1 1.9-1.4 0.1-0.5-2.7-4.9-4.8-8.6-4l-3.1 0.6 3.5-0.1c4.4-0.1 6.5 2.3 6.7 7.7 0.1 3 0.6 4.1 2.2 5.2 1.1 0.8 2.2 2.4 2.4 3.7 0.3 1.7 0.6 2 1.3 1.3 0.5-0.6 2-1.1 3.4-1.3zm-30.6-5.7c-0.5-3.3 2.4-7 6.2-8 5.1-1.3 5.3-1.5 2.5-1.8-4.5-0.6-9.3 4.5-11.7 12.5l-1.2 4.1 2.3-2.4c1.4-1.4 2.2-3.2 2-4.4zm52.5-58.4c0-0.2-1.1-0.9-2.3-1.6l-2.2-1.3 2 1.7c1.9 1.6 2.6 2 2.5 1.3zm-22.7-32c-1.6-0.5-5-2.4-7.8-4.2-4.1-2.7-4.6-2.9-2.9-1 2.6 3 10.1 6.7 12.6 6.3 0.5-0.1-0.4-0.6-2-1.1zm-1.6-25.3c0.7-3.5 0.5-16.7-0.3-17.3-1-0.9-2.1 3.1-1.7 6.4 0.6 5.4 0.6 6.1-0.2 6.3-0.4 0.1-0.4 0.6 0 1.2 0.4 0.6 0.2 1.8-0.5 2.7-0.7 1-0.8 1.6-0.1 1.7 0.8 0.1 0.9 0.7 0.3 2.2-0.6 1.7-0.5 1.9 0.5 1.4 0.7-0.4 1.5-2.4 2-4.5zm-19.4-5.2c-1.5-1.2-1.6-1.5-0.6-2.7 0.6-0.7 1-1.9 0.9-2.5-0.1-0.7 0.4-1.3 1.2-1.4 1.2-0.2 1.2-0.4 0.1-1.4-2.6-2.3-6.2 0.1-5.6 3.7 0.3 1.8 4.1 5.9 5.2 5.7 0.3 0-0.3-0.7-1.2-1.4zm53 138.2c-0.1-1 0-1.3 0.4-0.6 0.4 0.6 0.4 1.3 0.2 1.7-0.2 0.3-0.5-0.1-0.6-1.1zm0.1-4.5c-0.1-1 0-1.3 0.4-0.6 0.4 0.6 0.4 1.3 0.2 1.7-0.2 0.3-0.5-0.1-0.6-1.1zm-103.6 2.3c-3-1.2-6.2-3.8-11.7-9.7-4.2-4.5-7.2-7.9-6.7-7.7 0.5 0.2 3.9 3.4 7.4 7.1 7.2 7.5 8.6 8.5 13.9 10.2 2.1 0.7 3.2 1.3 2.5 1.5-0.7 0.1-3.1-0.5-5.4-1.3zm87.9-16.9c0.4-1.3 1.3-5.6 2-9.7 0.7-4 1.3-6.1 1.3-4.7 0 3.8-1.7 12.5-3 14.8-1 1.8-1 1.8-0.3-0.4zm-167.8 15.2c-1.4-0.5-2.7-1.3-2.8-1.8-0.1-0.5 0.8-0.5 2.2 0.1 2.7 1.2 6.2 0.8 8.4-0.9 0.8-0.6 1.6-0.9 1.6-0.7 0.1 0.6-5.1 4-6.2 4.1-0.4 0-1.9-0.3-3.3-0.8zm13.8-9.3c2.6-4.1 10.4-9 19.9-12.7 4.7-1.8 9.9-4.2 11.6-5.3l3-1.9-4.9-0.4c-5.4-0.5-5.3-0.4-13.9-5.6-3.3-1.9-8.5-4.8-11.5-6.4-3.1-1.6-5.6-3.1-5.7-3.3-0.1-0.7 13.8 6.1 19.3 9.4 7.2 4.3 9.8 5 15.4 4.1 4.2-0.7 5.7-1.6 12.1-6.6 14.1-11.3 53.3-39.7 58.8-42.6 6.7-3.5 12.4-4.2 15.7-1.9 1.7 1.2 1.9 1.8 1.3 2.7-0.7 0.9-0.9 1-1 0.2-0.1-0.6-0.5-1-0.9-0.9-0.4 0.1-0.4 1.4 0.1 2.9 2.1 7.2 2.5 8.1 4.5 8.1 1.1 0.1 2.7 0.3 3.5 0.4 3.3 0.8-2.7-12.1-7.1-15.2-4.1-2.9-15.6 1.1-27.1 9.7-2.1 1.6-4 2.7-4.2 2.5-0.6-0.4 14.7-10.9 18.4-12.6 4.8-2.2 10.8-3 13.3-1.8 1.2 0.6 4.1 3.7 6.4 7 3.1 4.3 6.9 8 13.8 13.2 5.2 4 10.1 8 10.8 8.9 0.7 1 1.7 1.3 2.4 0.9 3.1-1.9 12.5 3.8 11.8 7.1-0.2 1.2-0.7 1-2-0.8-2.3-3-2.5-3.2-6.7-4.2l-3.5-0.8 1 1.9c0.9 1.8 0.8 1.8-0.9 0.8-1-0.6-3.8-1.7-6.1-2.4-2.3-0.7-7.7-3.8-11.8-6.9-6.6-4.9-8.2-5.7-12.3-5.9-6-0.4-8.3 0.5-36 14.2-12 5.9-24.3 11.8-27.3 13-6.5 2.7-22.7 11.2-28 14.7-2.1 1.4-7.1 3.7-11.1 5.2-9.1 3.3-14.7 6.5-19 10.8-3.2 3.2-3.2 3.2-1.6 0.6zm49.6-28.1c2.7-1.4 3.8-2.4 3.3-3.2-0.5-0.9-1.5-0.5-4.5 1.8-3.5 2.6-4.6 3.9-3.3 3.6 0.3 0 2.3-1 4.5-2.2zm98.9-20.5c-3-3-4.1-3.4-3.8-1.3 0.2 1 1.4 2.1 2.9 2.6 3.5 1.2 3.5 1.2 0.9-1.4zm-84.4 13.7c4-2 4.1-2.1 3.2-5-0.5-1.6-1.1-3-1.3-2.9-0.2 0-2.5 1.7-5 3.6-3.5 2.7-4.4 3.9-3.8 5.1 0.8 1.8 1.6 1.8 6.9-0.8zm77.1-18c-0.9-1.5-2.7-3.3-3.8-4-2.1-1.3-2.1-1.3-1.8 0.3 0.3 1.7 6.5 7.7 7.1 6.9 0.2-0.2-0.5-1.7-1.4-3.1zm-61.8 10.5 5.3-2.7-0.6-5.2c-0.3-2.9-0.7-5.2-0.8-5.2-0.1 0-3.2 2.2-6.8 4.8l-6.6 4.8 1.5 3.2c0.8 1.8 1.7 3.1 2.1 3.1 0.3-0.1 3-1.3 5.9-2.8zm17-8.5 6.2-3.1-1.1-4.6c-1.9-8-1.9-8-8.1-3.8l-5.4 3.7 0.9 5.5c0.5 3 1 5.5 1.1 5.4 0.1 0 3-1.4 6.4-3.2zm35.1-10.6c-1.1-1.4-2.3-2.6-2.6-2.5-1.1 0.2 1.2 5.6 2.7 6.4 2.3 1.2 2.3-0.7-0.1-3.8zm-14.9 1.7 3.3-1.1-1.4-5.1c-0.8-2.8-1.7-5.4-2-5.8-0.7-0.8-8.3 0.3-10.3 1.4-1 0.6-1 1.7 0 5.1 2.2 8 2.4 8.4 5 7.4 1.2-0.5 3.7-1.4 5.5-2zm17.9 33.6c-0.2-0.9-0.3-3.3-0.2-5.3l0.1-3.6 0.5 3c0.3 1.7 0.4 4.1 0.2 5.3-0.3 1.8-0.4 2-0.7 0.6zm-135.6 17.7c-0.8-1.8-0.6-3.1 0.8-5.7 2.2-4.2 5.1-7 6.9-6.6 2.1 0.4 1.9 1.4-0.8 3.6-1.3 1.1-2.8 3.3-3.4 4.9-2.1 6.1-2.5 6.4-3.6 3.9zm-6-3.6c-2-3.5 6-14.6 9-12.5 1.5 1.1 1.7 2.2 0.4 2.4-1.9 0.3-5.8 5.3-6.5 8.2-0.7 3-1.8 3.8-2.9 2zm171.2-33.1c-0.9-1.4-3.2-2.7-6-3.4-4.5-1.3-5.9-2.3-3.4-2.8 4.3-0.7 11.7 4.1 11.2 7.2-0.1 0.8-0.8 0.5-1.7-1zm-176.7 28.5c-0.5-3.1 5.2-11.2 8-11.3 2.8-0.1 3.3 1.6 0.9 2.7-2.3 1-6.5 7.3-6.2 9.2 0.1 0.7-0.4 1.4-1.1 1.5-0.8 0.1-1.4-0.6-1.7-2.1zm-4.5-1.3c-2.7-1.1 0.6-8.8 5.2-12.2 1.8-1.4 2.6-1.6 3.5-0.9 0.9 0.7 0.9 1 0.1 1.5-2.1 1.2-5.5 5.9-6.5 9-0.7 2.2-1.4 3-2.3 2.6zm180.1-32.6c-1.1-1-3.6-2.3-5.6-2.7-4.3-0.9-5.1-2.3-1.1-1.9 3.8 0.4 9.3 3.6 9.7 5.7 0.3 1.3-1.2 0.8-3.1-1.1zm-185.8 29.5c-2.1-3.6 6.3-15.1 9.4-12.7 0.9 0.7 0.9 1.1 0.1 1.5-2.2 1.2-6.8 7.8-7 10-0.2 2.4-1.4 3-2.5 1.2zm185.6-32.9c-1.3-1-3.7-2.2-5.5-2.8-1.8-0.6-3.3-1.4-3.4-1.8-0.2-1.2 1.3-1 5 0.7 5.3 2.4 5.1 1.1-0.1-1.5-2.5-1.2-4.5-2.5-4.6-2.9-0.3-2 8.7 3.6 9.5 5.8 0.2 0.7 0.8 1.8 1.3 2.6 1.2 1.9 0.5 1.9-2.2-0.2zm-190.5 30.2c-2.2-3.7 6.8-15.4 10.1-13.1 0.7 0.5 0.3 1.3-1.3 2.5-2.8 2.1-6.8 8.4-6.5 10.2 0.3 1.6-1.4 1.9-2.2 0.4zm-4.5-2.1c-1.8-1.3 2.2-9.1 6.2-12 2.8-2.1 4.1-2.3 4.4-0.7 0.1 0.3-0.9 1.3-2.2 2.1-2.8 1.8-5.8 6.1-6.1 8.9-0.3 2-1 2.7-2.2 1.8zm-4.1-2.3c-2.2-2.5 6.7-14.9 9.7-13.7 1.6 0.7 1.2 1.5-2.1 3.8-2.1 1.4-3.7 3.6-4.8 6.4-1.7 4.5-1.9 4.7-2.9 3.5zm-3.7-1.8c-0.4-0.4-0.2-2.2 0.4-4 1.6-4.9 9.7-12.1 10.2-8.9 0 0.3-1.4 1.6-3.2 2.8-1.8 1.2-3.7 3.5-4.3 5-1.6 4.7-2.4 5.9-3.1 5.1zm-3.2-1.8c-2.1-3.6 5.6-14.2 9.6-13.4 1.2 0.2 0.6 1.1-2.3 3.4-2.8 2.2-4.3 4.2-5.2 7.2-1 2.9-1.6 3.8-2.1 2.9zm-3.4-1.9c-0.6-3.3 5.7-12.4 9-13 2.2-0.4 1.3 1.1-1.9 3.3-1.8 1.2-3.7 3.5-4.3 5-0.5 1.5-1.3 3.5-1.8 4.4-0.7 1.5-0.8 1.5-1.1 0.2zm-2.9-1.2c-0.6-3.3 4.2-10.4 8.4-12.4 2.7-1.4 2.5 0.5-0.3 2.2-2.7 1.7-6.7 7.7-6.4 9.6 0.1 0.7-0.2 1.3-0.7 1.4-0.5 0.1-0.9-0.3-1-0.8zm-1.6-4.1c1.3-4.1 5.4-9 7.9-9.4 1.1-0.2 0.7 0.4-1.1 1.8-1.5 1.2-3.6 4.1-4.7 6.5-2.4 5.4-3.7 6.1-2.1 1zm52.5-8.1c-5.3-1.8-15.7-10.8-16.1-13.8 0-0.4 0.9 0.6 2.2 2.2 2.4 3.2 10.1 8.8 13.7 10 1.8 0.6 2.4 0.5 3.4-0.6 1-1.2 0.7-1.5-2.4-2.3-5.2-1.4-11.7-7-13.8-12-2.2-5.1-2.3-10.1-0.6-19.3 1.7-9 1.6-13.1-0.2-14.9-1.3-1.2-1.4-0.9-1.3 3 0.2 5-0.7 11.8-2.1 17.2-1.4 5.4-1.6 2.8-0.2-4.2 0.6-3.3 1.1-8.1 1-10.7-0.2-5.9 0.5-8.4 2.1-7.5 0.7 0.4 3.6 4 6.7 8.1 16.7 22.6 23.9 23.1 54.2 4.1 11.1-7 20.9-12.4 22.8-12.7 0.5-0.1-1.4 1.3-4.2 3-6.7 4.1-5.9 4.5 1.1 0.5 8.6-4.9 8.5-3.9-0.2 1.3-4.3 2.6-12 8.3-17.1 12.6-5.1 4.4-11.4 9.1-13.9 10.5-5.4 3-13.9 4.7-16.6 3.3-1.7-0.8-1.5-0.9 1.8-0.6 7.3 0.7 11.5-1.7 32.9-18.5 3.7-2.9 6.5-5.2 6.2-5.2-0.3 0-5.5 3.3-11.5 7.3-14.9 9.7-23.8 14-30.4 14.6-2.8 0.2-5 0.7-4.9 1.1 0.1 0.4 0 1.4-0.2 2.3-0.2 1.2-0.1 1.4 0.7 0.7 1.4-1.3 0.6 0.7-2.7 6.4-1.5 2.6-3.1 4.5-3.5 4.3-0.4-0.2-0.5 0.2-0.2 0.8 0.7 1.1-2.8 9.2-4 9.3-0.4 0-1.5-0.2-2.5-0.6zm4.1-7.7c0.1-1 1.9-4.8 4-8.3 2.1-3.6 3.7-7 3.6-7.6-0.1-0.6-1.8-1.8-3.8-2.8-3.6-1.7-9-6.3-13.7-11.8-2.4-2.8-2.5-2.9-4.3-1.2-1.3 1.2-2.1 3.7-2.7 7.6-0.9 6.9-0.6 10.2 0.6 5.5 1-4 4-9.9 4.8-9.4 0.3 0.2-0.1 1.4-0.9 2.7-2.1 3.2-4.6 11-4.3 13 0.8 4.6 6.5 10.6 12.4 13.1 3.6 1.5 4 1.4 4.3-0.8zm-2.5-1.6c-0.5-2.6 4.3-14.5 5.5-13.6 0.3 0.2 0 1.2-0.6 2.2-0.6 1-2 4.1-3 7-1 2.8-1.9 4.8-1.9 4.5zm-2.2-5.3c0.9-4 3.8-9.8 5-10 0.4-0.1-0.2 1.9-1.5 4.3-1.3 2.5-2.4 5.5-2.5 6.7-0.1 1.2-0.5 2.2-1 2.3-0.4 0.1-0.4-1.4 0-3.3zm-3 0.4c-0.5-2.3 3.6-12.4 5.2-12.6 0.4-0.1-0.3 2-1.6 4.6-1.3 2.6-2.6 5.7-2.9 6.9-0.3 1.2-0.6 1.7-0.7 1.1zm-2.7-2.6c0.3-2.7 4.7-12.3 5.4-11.8 0.3 0.2-0.1 1.6-1 3.1-0.8 1.5-2 4.5-2.6 6.7-1.2 4.3-2.2 5.4-1.8 2.1zm-2.3-0.5c-0.5-2.6 4.3-14.5 5.5-13.6 0.3 0.2 0 1.2-0.6 2.2-0.6 1-2 4.1-3 7-1 2.8-1.9 4.8-1.9 4.5zm-2.4-3.5c-0.2-1.2 3.4-10.2 4.6-11.7 1.9-2.2 1.5-0.6-1 4.2-1.3 2.5-2.3 5-2.2 5.7 0.1 0.6-0.2 1.5-0.6 1.9-0.4 0.4-0.8 0.4-0.9 0zm23.4 1.8c-0.2-1.2-1.4 0.3-3.8 4.7l-2.2 4.1 3-4c1.7-2.2 3-4.4 2.9-4.8zm-83.1 29.7c-0.3-1.7 3.4-9.4 6.5-13.3 1.7-2.1 6.2-6.2 10.2-9 7.7-5.6 11.5-9.8 14.5-15.7 1-2.1 1.9-3.4 2-2.9 0.2 1.4-3.4 8.3-6.1 11.4-1.4 1.6-5.6 5.2-9.5 8.1-7.8 5.7-12.8 11.5-15.6 18.1-1 2.4-1.9 3.9-2 3.4zm192.1-44.9c-2.5-6.5-4-21.8-2.2-22.1 0.5-0.1 0.9 1.6 1 4.5 0.1 2.6 0.7 8.3 1.4 12.7 0.7 4.4 1.2 8 1.1 8-0.1 0-0.7-1.4-1.4-3.1zm-173.4 5.3c-0.4-2.3 0.4-2.9 1.4-1.1 0.4 0.6 0.3 1.6-0.2 2.2-0.6 0.7-1 0.5-1.2-1.1zm169.5-29.4c-2.6-5.2-5.7-8.5-9.4-10.1-3.5-1.6-4.9-1.7-10.6-0.7-5.3 0.9-7.5 1.7-11.3 4.4-3.7 2.5-4.4 2.8-2.9 1.2 3-3.3 10.1-7.1 15-7.9 5.5-0.9 10.9 0.4 15.2 3.8 3.8 2.9 6.8 8.2 5.7 9.8-0.6 0.8-1 0.6-1.6-0.5zm-105 16c-6.2-1.6-12.2-7.6-16.1-16.2-2.9-6.5-3.1-8.4-1-11.3 1.6-2.2 1.6-2.5 0.1-2.2-2.8 0.5-4.2 1.7-3.9 3.5 0.2 0.9-0.1 1.5-0.6 1.3-1.6-0.6-0.6-4.1 1.6-5.4 1.3-0.8 6.8-1.9 14.8-2.8 7-0.9 24.2-3.1 38.3-5 14.1-1.9 27-3.2 28.6-3 4.5 0.7 5.3 3.3 2.1 7.2-3.9 4.8-33.4 24-47.9 31.2-4.6 2.3-12.3 3.6-16 2.7zm15.7-5.3 2.7-1.9-2.8 0.9c-1.7 0.6-2.6 0.5-2.4 0 0.2-0.5 1.5-1.1 2.9-1.4 1.4-0.2 2.5-0.8 2.4-1.4-0.1-0.5-0.9-0.6-1.8-0.1-0.9 0.5-1.7 0.4-1.8-0.1-0.1-0.5 1.1-1.2 2.6-1.5 2.7-0.6 2.7-0.6-0.8-0.6l-3.6 0 3-0.7 3-0.7-2.8-0.8-2.8-0.8 3.4-0.8 3.4-0.8-4 0c-3.9 0-3.9 0-1-0.7l3-0.8-3.1-0.1-3.1-0.1 3-0.7 3-0.7-2.7-0.2c-2.6-0.2-2.6-0.3-0.6-0.8 1.8-0.5 1.9-0.6 0.3-0.7-1.8-0.2-1.8-0.2-0.2-1.1 1.5-0.9 1.5-1-0.4-0.7-1.7 0.2-1.9 0-1.2-1.2 0.7-1.2 0.5-1.4-1.2-1.2-1.8 0.2-1.7 0.1 0.4-0.9l2.5-1.1-3.1 0.3c-2.5 0.3-2.8 0.2-1.5-0.7 1.4-0.9 1.3-1-1-0.7-2.6 0.3-2.6 0.3-0.6-0.7l2.1-1-2.7 0c-2.3 0-2.1-0.1 1.2-0.9 2.5-0.6 1-0.6-4.5-0.1-10.4 1.1-11.4 2-10.4 9.2 0.4 3 1 4.8 1.6 4.7 0.5-0.1 0.4 0.3-0.2 0.9-1 0.9-1 1 0.1 0.9 1.2-0.2 1.2-0.1 0.1 0.9-1 0.9-1 1 0.1 0.9 1.2-0.2 1.2-0.1 0.1 0.9-1 0.9-0.9 1 0.4 0.8 0.9-0.1 1.4 0.2 1.2 0.7-0.2 0.5 0 0.9 0.6 0.8 0.5-0.1 0.8 0.3 0.6 0.8-0.2 0.5 0 0.9 0.6 0.8 0.5-0.1 0.8 0.2 0.6 0.7-0.2 0.5 0.3 1 1.2 1.2 0.8 0.2 1.3 0.6 1.1 0.9-0.6 0.8 2 2.6 3.5 2.5 0.6-0.1 0.4 0.4-0.4 1-1.2 0.8-0.4 0.8 2.8 0 2.4-0.6 5.6-2 7.1-3zm42.9-26.7c4.5-3.8 5.7-5.8 3.9-6.6-1.9-0.8-16.8 1.7-15.9 2.7 0.4 0.5-0.7 1.1-2.6 1.5l-3.3 0.7 3.6 0 3.6 0-3 0.7-3 0.7 3.9 0.1c4.9 0.1 5.5 0.5 2.6 1.8l-2.3 1 2.7 0.6c3.6 0.8 5.9 0.1 9.9-3.3zm-8.8 2.7c-0.9-0.4-1-0.7-0.4-0.8 0.6-0.1 1.3 0.2 1.7 0.6 0.8 1 0.5 1-1.3 0.2zm-2.8-1.9c-0.6-0.1-1.6 0-2.2 0.4-0.6 0.3 0 0.5 1.2 0.3 1.2-0.2 1.6-0.5 1-0.6zm11.8 19.4c0.6-0.4 1.3-0.4 1.7-0.2 0.3 0.2-0.1 0.5-1.1 0.6-1 0.1-1.3 0-0.6-0.4zm3.7-1.5c0.8-0.4 2.2-0.6 3-0.5 0.9 0.1 0.2 0.4-1.4 0.7-1.7 0.3-2.4 0.2-1.6-0.1zm7.6-27.4c-4.5 0.2-4.3 0.1 2.5-1.1 4-0.7 9.9-1.4 13.1-1.6 5.6-0.3 5.5-0.3-2.5 1.1-4.5 0.8-10.4 1.5-13.1 1.6zm-140.3 19.2c0.1-1.2-0.2-1.8-1-1.7-0.9 0.2-1-0.1-0.2-1.1 0.7-1 1.1-1 1.9-0.1 1.3 1.4 1.3 3.5 0.1 4.2-0.6 0.3-0.9-0.2-0.8-1.4zm11.2-30.4c-0.6-2.8 1.2-15.4 2.5-17.3 1.7-2.5 3.7-2.9 12.2-2.5 6.6 0.4 8.8 1 9.1 2.6 0.1 0.5-0.6 0.4-1.6-0.2-1.7-1-11.2-1.5-15.7-0.7-3 0.5-4.2 3.5-5.3 12.3-0.5 3.8-1 6.4-1.1 5.7z" fill="#000"/><path d="m-288.7 315.3c-9.4 0.4-20.8-1.8-31.1-5.9-11.5-4.6-18.1-10.1-24.6-20.5-5.2-8.4-9.2-12.7-17.3-18.7-7.2-5.3-14.8-9.9-29.3-17.9-10.2-5.6-15.7-9.7-18-13.4-2.8-4.6-1.8-12.2 2.6-19.8 2.5-4.3 3.8-6 9.7-12.1 2.6-2.7 5-5.3 5.2-5.7 0.5-0.7 0.5-0.7 2.8 1 3.6 2.7 13.7 7.3 16.1 7.4l1 0-0.8-0.5c-0.5-0.3-3.2-1.6-6-3-5.9-2.8-8.9-4.6-9.9-6.1-0.4-0.6-0.8-1.8-1-3-0.2-1.1-0.4-1.9-0.6-1.9-0.1 0-0.5 0.9-0.9 1.8-0.8 2-2.9 4.5-8.1 9.5-4.1 3.9-9.3 10.9-11 14.9-4.7 10.7-3.5 17.4 4.5 24.5 1.5 1.3 3 2.8 3.4 3.2l0.7 0.7-1.1 0c-1.8-0.1-5-0.7-6.4-1.2-1.9-0.7-2.7-1.3-6.1-4.5-4.4-4.2-4.7-4.3-2.1-0.2 1 1.6 1.6 2.7 1.5 3.3 0 0.7 0.1 0.9 1.3 1.2 1.7 0.4 8.5 3.9 8.1 4.1-0.2 0.1-1.4 0.1-2.6-0.1-2.5-0.3-4-1.2-4.6-2.6-0.3-0.7-0.5-0.8-1.2-0.7-1.7 0.3-4.6-2.5-8.5-7.9-2.8-3.9-3.9-6.4-4.6-11.1-1.6-9.6 0.2-14.6 11.9-32 7.8-11.8 8.7-13.8 8-18.5-0.2-1.5-0.9-3.5-2.2-6.5-2.3-5.1-3.3-7.8-3.1-8.1 0.1-0.1 0.6 0.4 1.2 1.1 1.5 1.8 4.8 3.8 7.4 4.6 1.9 0.6 2.8 0.6 5 0.4 3.1-0.4 2.9 0 2.6-4.2-0.5-5.8-1.7-11.2-2.4-10.3-0.1 0.1 0 2.9 0.2 6.2 0.2 3.3 0.2 6.2 0.1 6.4-0.5 0.6-1.3 0.2-1.9-1-0.3-0.6-1-3.2-1.6-5.8-1.2-5.4-1.1-5-1.4-4.5-0.2 0.2-0.3 2.2-0.2 4.5l0.1 4-0.6-3.2c-0.6-3.2-0.9-4.2-1.4-4.2-0.6 0.1-0.7 2.3-0.3 5.8 0.5 4.2 0.1 4.1-0.8-0.2-0.3-1.4-0.7-3.4-1-4.4-0.5-1.6-0.6-1.8-0.8-1.2-0.4 1-0.4 4.3 0 6.6 0.5 3.4-0.4 1-1.4-3.6-0.5-2.3-1-4-1-3.9-0.1 0.1-0.1 1.2-0.2 2.4l0 2.2-0.6-3.3c-0.3-1.9-0.7-3.3-0.9-3.2-0.2 0-0.5 1.4-0.7 3-0.2 1.6-0.4 3.1-0.4 3.3 0 0.2-0.3-1.2-0.5-3-0.5-3.7-0.3-5.2 0.8-6.7 0.9-1.2 2.4-1.2 6.4-0.1 1.7 0.5 3.2 0.7 3.3 0.6 0.3-0.4-2.2-1.8-4.2-2.3-1-0.3-2.8-0.5-4-0.5-1.2 0-2.4-0.1-2.7-0.3-0.5-0.4-0.6-6 0-8.3 0.6-2.5 2.4-4.5 4.3-4.8 1.4-0.2 1.9-0.6 1.8-1.3-0.1-0.8-1.1-0.9-2.9-0.3-1.4 0.4-1.5 0.4-1-0.1 0.3-0.4 1.2-0.7 2.4-0.9 5.3-0.9 11.1 3.8 15.1 12.3 1.2 2.4 1.5 2.9 1.3 2-0.4-2.5-2.1-6.4-4-9-3.2-4.5-7.7-7.4-10.9-6.8-0.7 0.1-1.2 0.1-1.3-0.1-0.1-0.4-0.4-0.3 3.7-1.2 3.1-0.7 3.5-0.9 2.9-1.1-0.4-0.2-1.9-0.2-3.3-0.2-1.4 0-3 0.1-3.6 0.1-1.7 0-1.8-0.9-0.7-5.1 1.7-6.5 2.4-11.2 4-28.4 1.4-15.7 2.3-21.2 4.3-27.7 4.4-14.3 15.1-25.5 31.3-32.8 13.9-6.2 30.8-10 59.9-13.3 29-3.3 39.6-3.4 51.3-0.3 18.3 4.8 31.7 18.4 38.7 39.5 0.7 2.2 2.8 9 4.5 15 1.8 6 3.7 12.3 4.3 13.9 0.6 1.6 1.1 3 1 3.1-0.2 0.3-6.8 1.2-23.9 3.4-9.1 1.2-31.9 4.1-50.7 6.5-36 4.7-45 5.7-65.6 7.9-18.1 1.9-17.4 1.9-17.9 1-0.2-0.4-1-3.5-1.7-6.9-0.7-3.4-1.3-6.2-1.3-6.1 0 0.1 0.1 3 0.3 6.5 0.2 3.5 0.3 6.7 0.3 7-0.1 0.6-0.9 0.7-17.5 2.1-6 0.5-10.9 1-11 1.2-0.1 0.1-0.3 3-0.5 6.3l-0.4 6.1 0.9 0.9c0.5 0.5 2.2 2 3.7 3.4 7.1 6.3 10.3 14 12.9 31.3 1.6 10.9 1.4 13.1-1.9 20.2-0.7 1.6-1.3 2.9-1.2 3 0.2 0.1 2.4-3.3 3.6-5.4 2.7-4.9 2.6-12.3-0.4-25.8-2.1-9.6-4.3-15.4-7.6-19.8-1.9-2.5-1-2.2 1.1 0.4 1.1 1.4 2.1 2.5 2.3 2.5 0.5-0.1 0.1-1.5-0.9-3.2-0.5-0.9-0.9-1.6-0.9-1.7 0-0.1 0.5 0.1 1 0.4 1.4 0.7 1.6 0.1 0.5-1.4-0.5-0.6-0.9-1.3-0.9-1.4 0-0.1 0.8 0.3 1.8 0.9 1 0.6 1.8 0.9 1.8 0.7 0-0.2-0.7-1.1-1.5-1.9-0.8-0.9-1.4-1.8-1.3-2 0.2-0.4 0-0.4 10.8-1 31.5-1.6 88.2-7.8 135.7-14.7 9.3-1.4 19.6-2.9 23-3.3l6.2-0.9 0.3 0.7c0.2 0.4 0.4 1.5 0.4 2.5l0.1 1.8-1.6 0.4c-0.9 0.2-5 1.1-9.1 1.9-9.3 1.8-14.4 3.1-15.5 3.9-1.1 0.9-1.8 2.8-1.6 4.3 0.5 2.8 7.8 11.3 12.6 14.8 7.9 5.6 13.6 3.3 14.7-5.8 0.3-2.9 0.4-11.3 0.1-15.2-0.1-1.9-0.1-2.2 0.4-2.3 0.3-0.1 0.7 0 0.8 0.2 0.5 0.5 1.6 4.8 3.4 12.6 1 4.4 2.7 11.3 3.8 15.2 2.5 9.6 2.6 11.9 0.5 13.8-1.4 1.2-4.2 1.4-7.5 0.5-3.2-0.9-5.7-2.1-10.7-5-2.2-1.3-4.1-2.2-4.3-2.2-0.5 0.3 0.3 2.6 1.4 4 0.6 0.7 1.6 1.8 2.2 2.4 1.7 1.5 6.2 4.1 8.3 4.8 1.8 0.6 1.9 0.6 6.6-0.2l4.8-0.8-0.5 1.4-0.5 1.4 1.4 3.3c0.8 1.8 1.6 3.7 1.7 4.1 0.7 1.8 2.7 9.2 3.6 13.1 0.8 3.8 0.9 4.2 0.4 4.3-1 0.2-0.4 1 1.8 2.4 2.3 1.4 2.8 2.1 0.8 1-1.5-0.8-2.5-0.8-2.5-0.1 0 0.4 1.3 1.3 4 2.7 2.2 1.2 4 2.3 3.9 2.4-0.1 0.1-1.6-0.4-3.4-1.1-2-0.8-3.6-1.2-4.2-1.1-1.6 0.3-0.7 1.2 2.7 2.7 1.8 0.8 4.3 2.1 5.5 2.9 1.3 0.8 2.4 1.5 2.6 1.4 0.4-0.1-0.2-1.8-1.4-3.9-0.6-1.1-1.7-2.2-3.2-3.4-1.2-1-2.1-1.8-2-1.8 0.6-0.1 4.5 3.1 5.6 4.6 3 4 4.1 9.1 5.1 22.4 0.1 1.8 0.3 2.2 1.6 4 1.8 2.5 5.4 8.8 6.7 11.7 0.9 2.2 2.8 10.1 3.9 16.7l0.7 3.8-2.1 7c-3.2 10.6-5.8 15.8-10.5 21.1-3.6 4-10.5 8.4-16.7 10.8-9.8 3.8-20.6 4.6-29.2 2.2-1.4-0.4-3.1-0.8-3.7-1l-1.2-0.3 2.1-3c1.2-1.7 2.4-3.7 2.8-4.4 1.2-2.3 1.1-1.3-0.1 1.3-0.6 1.3-1.1 2.5-1.1 2.7 0.2 1.4 5.7-3.8 7.7-7.3l0.9-1.7 1 1.7c1.6 2.7 3.9 5 6.1 6.1 4 2.1 6.2 2.3 12.6 1.5 4-0.5 5.3-0.8 7.1-1.6 6-2.6 12.2-9.1 15.3-16 1.3-3 1.6-4.1 1-4-0.2 0-2.3 2.7-4.7 5.9-6.2 8.3-9.8 11.5-15 13.2-3.9 1.3-8.8 1.1-12.6-0.5-3.9-1.6-6.4-4.4-7.9-8.9-0.7-2.1-0.8-3.7-0.2-3.5 0.2 0.1 0.9 1 1.6 2 0.7 1 1.6 2 1.9 2.1 0.4 0.1 2.1 1.2 3.8 2.4 3.7 2.5 5.4 3.2 8.6 3.1 4.3-0.1 10.1-1.5 9.9-2.3-0.1-0.5-1.2-0.4-5.2 0.3-5.3 0.9-7.6 0.6-10.7-1.4-1.9-1.3-5.1-4.4-4.8-4.8 0.1-0.1 1.3 0.7 2.7 1.7 2.8 2.1 5 2.8 8 2.9 7.5 0.1 13.3-3.6 15.1-9.7 0.7-2.2 0.7-2.5 0.1-6-0.6-3.4-0.7-3.8-2.1-5.9-0.8-1.2-1.5-2.4-1.5-2.5-0.1-0.7 1.9 1.4 3 3.2 0.7 1 1.3 1.8 1.5 1.8 0.5-0.1-0.1-2.2-1-3.8-0.5-0.9-0.9-1.6-0.8-1.7 0.2-0.3 2 2.4 2.9 4.4l0.9 2-0.5-3.1c-0.3-1.9-0.4-3.1-0.2-3.2 0.2 0 0.4 0.1 0.6 0.4 0.3 0.5 1.5 0.4 1.4-0.1 0-0.3 0.1-0.3 0.3-0.1 0.7 0.5 1.8 6 1.6 8.5-0.2 2.4 0 2.9 0.7 2 0.5-0.7 0.6-4.2 0.3-7.9l-0.2-2.7 1.7 2.4c0.9 1.3 1.8 2.4 2 2.4 0.7-0.1-0.2-2.9-1.5-4.6-3-4.1-13.3-9.4-17.2-8.7-1.9 0.3-2.9 1.2-4 3.4-1.4 2.9-2.1 3.9-3.7 5.1-1.4 1-1.8 1.2-5.9 1.9-4.8 0.9-5.1 0.5-0.5-0.7 2.5-0.7 2.6-0.7 2.6-1.6 0-0.9 0.1-0.9 0.7-0.5 1.6 0.8 1.5-0.1-0.1-2.6-0.6-0.9-1.9-3.9-2.9-6.5-2.6-7-3.8-9.7-5.1-11.5-1.7-2.5-3.8-4-6.8-4.9l-2.6-0.8-4.3 0.7c-4 0.7-4.6 0.9-7.5 2.4-4.2 2.1-6.3 3.9-9.1 7.5-2.9 3.9-4.3 6.6-6.6 12.9-3.6 9.8-5.6 12.9-10.6 15.8-4 2.3-6.9 2.5-14.6 0.9-7.2-1.5-9.4-1.7-12.7-1.1-5.3 0.9-8.2 2.8-10.6 6.9-1.6 2.7-1.8 3.6-1.7 7.4 0.1 2.6 1 6.3 2.2 8.5 0.7 1.5 3 3.4 3.8 3.3 0.4-0.1 1.1 0.6 2.4 2.1 2.1 2.5 2.9 2.8 1.8 0.6-0.4-0.8-1.2-2.4-1.9-3.7-0.7-1.2-1.4-2.9-1.7-3.8-0.4-1.5-0.4-1.5 1.2 1.2 2.2 3.8 4.6 7.2 4.9 7 0.1-0.1-0.6-2.1-1.7-4.4-1.1-2.3-2-4.3-2-4.5-0.1-0.5 0.5-0.1 4 2.6 4.4 3.5 5.4 3.8 9.4 3.1 1.6-0.3 3-0.4 3-0.2 0.1 0.8-1.5 2.7-3.5 4.1-2.1 1.5-2.5 2.3-1.1 2.2 1.9 0 5.1-3.9 6.2-7.6 0.4-1.4 0.7-2.5 0.7-2.6-0.1 0-1.1 0.4-2.2 1.1-3.6 2-7.4 2.2-9.4 0.7-1-0.7-1.1-1.1-1.4-2.6-0.3-1.5-0.2-2.1 0.5-3.5 1.4-3 4.9-5.7 8-6.2 1.8-0.3 4.1 0.1 5 0.9 0.9 0.8 0.4 0.8-1.1 0.1-1.2-0.6-1.7-0.6-3.8-0.2-2.5 0.4-3.9 1.2-5.8 3.2-1.8 1.9-2.6 5-1.7 6.9 0.6 1.4 1 1.5 1.7 0.5 0.4-0.7 1-0.9 3.4-1.5 2.3-0.6 3.1-0.9 4.6-2.1 1-0.8 1.9-1.3 2-1.2 0.1 0.1 0 0.8-0.3 1.5-0.7 2.2-0.4 2.4 0.9 0.4l1.2-1.8 0.2 1.4c0.1 0.8 0.2 2.3 0.2 3.5 0 2 0 2.2 0.9 3 1.2 1.2 1.1 2.1-0.9 4.9-2.1 3-4 4.2-8.3 5.1-7.3 1.6-12.2-0.2-17.3-6.3-1.3-1.5-2.5-2.8-2.7-2.8-0.5 0.1-0.1 1.4 1 3 3 4.4 7.8 8.2 11 8.8 2.5 0.5 7.2 0 10.2-1 4.7-1.6 6.9-3.8 10.2-10.6 1.1-2.3 2.9-5.5 4.1-7.3 1.5-2.2 2.2-3.7 2.4-4.9 0.2-0.9 0.7-2.8 1.1-4.1 0.6-1.9 1.1-2.6 2.3-3.7 2.3-2 2.3-2.7 0.1-1.3-0.4 0.2 0-0.6 0.8-1.9 1.9-3.1 2.8-4.8 2.7-5.2-0.1-0.4 2.5-5 2.7-4.8 0.1 0.1-0.4 1.5-1.2 3.1-1.5 3.4-2.6 6.5-3.4 10.2-1.2 5.6-2 7.3-5 11.5-1.1 1.5-2.7 4.3-3.6 6.2-4.8 10.3-7.6 13.3-14.6 15.8-2.5 0.9-8 2-10.5 2l0 0zm107.8-46.3c-0.2-0.6-0.4-1-0.6-1-0.2 0-0.3 0.5-0.2 1.1 0.1 0.8 0.2 1 0.6 1 0.4-0.1 0.5-0.3 0.2-1.1zm0.2-3.9c0.1-0.8-0.4-1.9-0.8-1.8-0.2 0-0.2 0.6-0.1 1.3 0.2 1.4 0.7 1.6 0.9 0.5zm-98.7 2.8c0-0.2-0.8-0.6-1.7-1-6.8-2.6-7.4-3.1-15.8-11.4-5.7-5.7-6.8-6.6-6.7-5.9 0 0.3 1.5 2 3.2 3.9 7.5 8.2 11.9 12.1 15.7 13.5 3.2 1.2 5.4 1.6 5.3 0.9l0 0zm82.6-17.5c0.8-1.7 2-6.5 2.5-10 1.1-7.7 0.2-7.3-1.3 0.6-0.6 2.9-1.3 6.5-1.7 7.9-0.7 2.7-0.5 3.4 0.5 1.5l0 0zm-161.2 13.6c3.5-2.4 3.4-3.1-0.2-1.2-2.4 1.2-3.8 1.3-7 0.5-4.1-1.1-3.3 0.8 0.9 2.2 2.4 0.8 3.4 0.5 6.3-1.4l0 0zm8.6-8.8c4.9-4.5 8.4-6.5 19.2-10.9 4.4-1.8 8.2-3.6 11-5.2 9-5.2 18.7-10.2 29.6-15.3 6.3-2.9 18.5-8.8 27-13 17.3-8.4 22.4-10.8 26.3-12.2 3.2-1.1 4.5-1.4 7.5-1.2 3.9 0.2 5.6 0.9 11.9 5.3 6.8 4.6 10.5 6.8 14 8 1.4 0.5 3.3 1.3 4.3 1.7 1 0.5 1.9 0.8 2.1 0.8 0.3 0-0.2-1.6-0.7-2.6-0.3-0.4 0.2-0.4 2.5 0.2 3.8 0.9 4.9 1.5 6.6 3.7 1.5 1.9 2.7 2.3 2.6 0.9 0-1.4-1.2-2.9-3.5-4.6-2.9-2.1-5.4-2.9-7.7-2.5l-1.7 0.3-2.8-2.4c-1.5-1.3-5.1-4.2-7.9-6.5-8.9-7-11-9-15.7-15.1-5.1-6.5-6.1-7.1-11.3-6.5-4.3 0.5-7.3 1.6-11.4 4.1-4.9 2.9-13.3 8.8-14.3 9.9-1.5 1.7 0.1 0.9 5.2-2.5 4.8-3.3 10.6-6.6 11.7-6.7 0.3 0-0.4 0.5-1.7 1.1-5.1 2.7-34.7 24-53.3 38.2-5.6 4.3-11 8.3-11.9 8.9-3.7 2.4-9.4 3.2-13.5 2.1-1.2-0.3-4.4-1.9-7.2-3.4-6.4-3.5-10.8-5.8-15.7-8.1-6.8-3.1-5.7-1.8 1.9 2.3 2.6 1.4 7.7 4.2 11.3 6.3 3.6 2.1 7.3 4 8.3 4.3 1 0.3 3.5 0.7 5.6 1l3.9 0.4-1.3 0.9c-1.9 1.2-5.9 3.2-12 5.7-8.3 3.5-13.2 6.2-17.2 9.5-2.3 1.9-5.3 5.9-4.3 5.7 0.1 0 1.4-1.2 2.9-2.6zm133.6-27.7c0-2.1-0.7-7.2-1-6.9-0.3 0.4-0.3 7 0 8.6 0.3 1.5 0.3 1.6 0.6 1 0.2-0.4 0.3-1.6 0.4-2.7l0 0zm-134.4 20c0.3-0.6 0.9-2 1.2-2.9 0.8-2.3 2.6-4.9 4.3-6.5 2-1.8 2-2.9 0.2-3.2-1.9-0.3-4.4 1.8-6.6 5.6-1.2 2.2-2 4.4-1.8 5.4 0.2 1.2 1.2 2.9 1.6 2.9 0.2 0 0.7-0.6 1-1.2zm-5.2-5.3c1.5-3.9 4.2-7.3 7.1-8.9 0.7-0.4 0.6-1-0.4-1.9-0.9-0.8-2.5-0.8-3.7 0.1-2.4 1.8-5.5 6.4-6.1 9.1-0.3 1.4-0.1 2.8 0.5 3.6 0.9 1 1.7 0.4 2.6-2.1l0 0zm170-31.5c-0.6-3.3-7-7.1-11-6.4-1.1 0.2-1.5 0.4-1.4 0.7 0.1 0.5 1.2 1.1 4.5 2.2 3.4 1.2 5 2.1 6.2 3.6 1.3 1.6 2 1.6 1.8-0.1zm-176.3 30.4c0.3-0.2 0.7-1.1 1-2.1 0.7-2.6 3.6-6.8 5.7-8.3 1.3-0.9 1.7-1.3 1.6-1.9-0.1-0.8-0.7-1.2-2-1.3-2.1-0.2-6.5 4.5-8 8.5-0.8 2.1-0.6 4.3 0.3 5 0.7 0.5 0.6 0.5 1.3 0.1l0 0zm-5.5-3.4c0.2-0.2 0.8-1.5 1.5-3 1.3-3 4.4-7.3 5.9-8.2 1-0.6 1.1-1.5 0.2-2-1.6-0.9-4.4 0.9-7 4.5-2 2.8-3.3 6.3-2.7 7.6 0.6 1.4 1.4 1.8 2.1 1.1l0 0zm182-31.6c-0.4-2.5-8-6.3-11.4-5.7-1.9 0.3-1 1.1 2.5 2.2 2.6 0.8 4 1.5 5.8 2.8 2.6 1.9 3.4 2.1 3.1 0.7zm-187 29.5c0.2-0.2 0.6-1.2 0.9-2.3 0.7-2.3 4-7.3 6.1-9 1.9-1.6 1.4-3-0.8-2.7-4.1 0.7-9.8 9.8-8.1 13.1 0.6 1.2 1.3 1.5 2 0.9l0 0zm-4.5-3.2c0.4-3 3.1-7.5 6.3-10.5 2.1-2 2.4-3 1-3.3-3.2-0.9-10.6 8.4-10 12.4 0.3 1.8 2.5 2.9 2.7 1.4zm-4.3-4.7c0.9-2.9 3.2-6.2 6-8.4 1.7-1.4 2.1-1.8 2-2.5-0.1-0.6-0.3-0.8-1.1-0.7-4.3 0.3-12 12-9.2 13.9 1 0.7 1.7 0 2.4-2.4l0 0zm-3.7-3.1c1.7-3.8 2.6-4.9 5.5-7.3 1.1-0.8 2.1-1.8 2.2-2.1 0.3-0.9-0.5-1.5-1.8-1.3-3.3 0.6-9.8 9.6-9.2 12.9 0.2 1 0.8 1.7 1.4 1.5 0.2-0.1 1-1.7 1.9-3.7l0 0zm-5.2 0.7c0.3-0.4 0.9-1.9 1.5-3.2 1.1-2.8 2.4-4.5 5.2-6.6 2.4-1.8 2.9-2.5 2.5-3.1-0.2-0.4-0.6-0.4-1.6-0.1-2.9 0.8-7.7 6.3-8.8 10-0.9 3.2-0.1 5 1.2 3l0 0zm-2.5-3.6c1.3-3.3 2.8-5.4 5.7-7.9 2.4-2 2.9-2.9 2.1-3.2-3.3-1.4-11.1 8-10.3 12.5 0.4 2.2 1.3 1.7 2.5-1.3l0 0zm-3.2-2.2c1.6-3.5 3-5.4 5.5-7.3 2.9-2.1 3.5-3.5 1.4-3.2-1.7 0.3-3.6 2-6 5.3-2.4 3.3-3.6 6.2-3.3 7.9 0.2 1.5 0.8 0.8 2.3-2.7l0 0zm-3.2 0.4c0.4-2.3 3.8-7.3 6.5-9.3 1.4-1 1.9-1.6 1.9-2.2 0-1.1-1.2-0.8-3.7 1.1-3.6 2.7-7.1 8.5-6.7 11.1 0.2 1 0.4 1.2 1.2 1.1 0.4-0.1 0.6-0.6 0.8-1.8l0 0zm-1.7-3.1c1.9-3.8 3.4-6 5.4-7.8 1.7-1.5 1.7-2 0-1.5-2.5 0.8-6.4 5.9-7.5 9.9-0.7 2.6-0.7 2.9-0.1 2.8 0.3 0 1.2-1.6 2.2-3.4l0 0zm55.1-9.7c1.4-2.6 2.5-5.9 2.4-6.9-0.1-0.4 0-0.8 0.2-0.8 0.9-0.1 5.9-8 6.7-10.6 0.2-0.7 0.2-0.8-0.4-0.7-0.6 0.1-0.7 0-0.7-1.1 0-0.7 0.1-1.3 0.1-1.5 0-0.1 2.6-0.7 5.6-1.3 6.1-1.2 8.7-2.2 15.4-5.8 3.2-1.7 14.5-8.7 20.1-12.4 1-0.6 1.9-1.2 2.1-1.2 0.6-0.1-1 1.1-9 7.3-8.5 6.5-13.2 9.8-16.7 11.6-4.1 2.1-4.8 2.2-12 2.1l-1.2 0 1 0.7c1.5 0.9 3 1 7.2 0.3 7.5-1.3 10.6-3 22.4-12.5 8.4-6.7 14.3-11.2 20.1-14.8 2.2-1.4 4.3-2.8 4.6-3.1 0.5-0.5 0.5-0.5-0.1-0.4-0.4 0.1-2.5 1.1-4.7 2.3-2.2 1.2-4.2 2.1-4.3 2.1-0.2 0 1.2-1 3-2.2 3.5-2.3 4.1-2.8 2.7-2.6-1.7 0.3-8.5 4.1-22.4 12.5-11.4 6.9-14.4 8.6-19 10.6-9.6 4.1-15.5 4-22-0.7-4.2-3-6-4.9-13.3-14.3-5.5-7.1-6.3-7.9-7.3-7.8-1.1 0.2-1.3 1.6-1.5 7.5-0.1 2.6-0.6 7.7-1.1 11.3-0.5 3.6-0.8 6.6-0.7 6.7 0.5 0.3 0.8-0.5 1.6-4 1.2-5.1 1.6-8.6 1.8-14.3 0.1-2.7 0.2-5 0.3-5.1 0.1-0.1 0.4 0.2 0.8 0.6 1.7 1.8 1.7 4.5 0.2 14.7-0.6 3.6-1.1 7.7-1.1 9-0.1 3.1 0.7 7.8 1.7 10.1 2.4 5.4 8.2 10.5 13.9 12.3 1.2 0.4 2.3 0.8 2.5 1 0.4 0.4-0.7 1.7-1.5 1.8-1.3 0.2-3.8-1-7.6-3.6-3.8-2.6-6.3-4.8-8.4-7.3-2.1-2.5-2.6-2-0.7 0.8 2.8 4.1 11.4 10.7 15.4 11.9 2.3 0.7 2.7 0.5 4-1.9l0 0zm-73.4 9.7c3.8-8.2 6.9-11.7 17.2-19.9 6.6-5.2 7.5-6.1 9.6-9 2.5-3.5 5.3-9.2 4.6-9.7-0.3-0.2-1 0.7-2.5 3.5-3.1 5.6-5.9 8.7-13.6 14.6-6.7 5.2-10 8.4-12.1 11.5-2.5 3.8-4.8 8.7-5.1 11-0.2 1.5 0.6 0.6 1.8-2.1l0 0zm189.5-58.6c-0.4-4.4-0.6-5.7-1-5.9-2.4-1.7-1 14.8 2 22.5 0.5 1.3 1 2.4 1.2 2.6 0.1 0.2-0.2-2.8-0.7-6.6-0.5-3.8-1.2-9.4-1.5-12.5l0 0zm-170.8 21.7c0.2-0.8 0.2-1.1-0.3-1.8-0.8-1.1-1.5-0.9-1.6 0.5-0.2 2.4 1.3 3.4 1.9 1.3l0 0zm169.5-29.2c1-1.6-2-6.9-5.4-9.7-2.3-1.9-6.3-3.6-9.4-4.1-3.7-0.6-8.8 0.3-12.8 2.3-4.6 2.2-9.8 6.2-9 6.8 0.1 0.1 1.5-0.7 3.1-1.7 5.2-3.3 5.4-3.3 11.9-4.4l5.9-1 2.4 0.7c4.1 1.3 7.5 4.2 10.3 8.9 0.8 1.3 1.5 2.5 1.6 2.7 0.3 0.4 1 0.1 1.3-0.5l0 0zm-90.5 13c11.8-5.8 39.8-23.8 46.1-29.6 2-1.8 3.6-4.2 3.7-5.5 0.1-1.4-1-2.7-2.8-3.2-2.6-0.7-10.5 0.1-51.7 5.4-24 3.1-30.4 4.2-31.9 5.4-1.9 1.5-2.7 5.4-1 5.1 0.4-0.1 0.6-0.5 0.8-1.4 0.2-1.6 1.4-2.7 3.4-3l1.2-0.2-1.1 1.7c-2.1 3.3-2 5 0.5 10.8 4.6 10.5 11.4 16.9 18.5 17.5 1.1 0.1 3.3-0.2 6.6-0.8 4.2-0.8 5.3-1.1 7.6-2.3l0 0zm44.4-9.3c-0.1-0.5-0.8-0.6-1.5-0.3-1.1 0.5-0.8 1 0.5 0.8 0.6-0.1 1.1-0.3 1.1-0.5zm5.3-1.9c-0.1-0.4-1.5-0.3-2.9 0.1-1.7 0.5-1 0.9 1 0.5 1.1-0.2 1.9-0.5 1.9-0.6l0 0zm22.8-29.9c-2.9-0.4-22.8 2.4-21.3 3 0.3 0.1 2 0.1 3.8 0 4.4-0.4 18.8-2.8 17.5-2.9l0 0zm-157.5 23c0.9-1.2-0.2-4.4-1.6-4.4-0.7 0-1.7 1.1-1.6 1.7 0 0.2 0.4 0.4 0.7 0.3 0.6-0.1 0.7 0.1 0.9 1.5 0.3 1.7 0.7 1.9 1.5 0.8zm11.3-38.1c1.5-9.2 2.4-10.9 6.3-11.2 5.4-0.4 11-0.1 13.6 0.7 0.9 0.3 1.8 0.5 2 0.5 0.7-0.1-0.1-1.5-1.2-2-2-0.9-10.4-1.5-15-1.1-4 0.4-5.1 1.5-6.2 6.9-0.8 4-1.4 9.5-1.2 11.6 0.2 2.7 0.5 1.7 1.6-5.4l0 0z" fill="#fff"/><path d="m-348.9 201.9c-5.4-1.7-12.4-8.5-13.1-12.8-0.4-2.2 1.3-7.9 3.6-12.3 1.5-2.8 1.8-4.1 0.9-4-0.9 0.2-2.9 3.8-4.3 7.8-0.5 1.5-1 2.4-1.1 2-0.2-0.9 0.5-6.3 1-8.9 0.5-2.1 2.8-5.5 3.6-5.1 0.3 0.1 2.3 2.1 4.5 4.5 2.7 2.9 5.9 5.6 9.5 8.1 3 2.1 5.5 4 5.5 4.3 0 0.3-1.4 3.5-3.3 7-1.9 3.6-3.6 7.4-4 8.4-0.3 1-0.6 1.8-0.7 1.9-0.1 0-1.1-0.3-2.3-0.7l0 0zm3.1-7.5c1-2.5 2.2-5.4 2.7-6.3 1-2 1.1-2.5 0.1-2.4-1.4 0.2-5.8 11-5.5 13.2 0.2 1.3 0.8 0.3 2.7-4.5l0 0zm-3.4 0.5c0.3-1.1 1.4-4 2.4-6.3 1.3-3 1.7-4.3 1.3-4.6-1.5-1-6.7 11.8-5.4 13.3 0.5 0.6 1-0.1 1.6-2.4l0 0zm-3.2-1.6c0.3-0.8 1.4-3.5 2.5-6.1 2.1-4.8 2.4-6.3 1-5.2-2 1.5-6 13.1-4.4 12.9 0.3 0 0.7-0.8 1-1.6l0 0zm-2.2-2c0.5-1.4 1.6-4.3 2.5-6.4 1.6-3.8 1.8-4.9 1-4.8-1.2 0.2-5.6 11-5.3 12.9 0.3 1.6 0.9 1.1 1.8-1.7zm-1.6-4.4c0.9-2.3 2.1-5.2 2.7-6.6 1.4-3 0.5-3.7-1.2-0.9-1.5 2.5-3.8 8.8-3.9 10.7-0.1 2.3 0.6 1.5 2.4-3.3l0 0zm-2.8-1.1c0.3-1.2 1.4-4.1 2.5-6.3 1-2.2 1.8-4.2 1.7-4.4-0.7-1.2-3.8 4.3-5.4 9.7-0.9 3-0.9 3.5 0.1 3.4 0.4-0.1 0.9-1.1 1.2-2.4l0 0z" fill="#f9f9f9"/></g><path d="" transform="matrix(3.5448571,0,0,3.5448571,0,-0.16871429)" style="fill:#f00;stroke-width:9.1;stroke:#000"/></svg>