<svg xmlns:svg="http://www.w3.org/2000/svg" xmlns="http://www.w3.org/2000/svg" version="1.1" viewBox="0 0 1240.7 1327" height="374.4" width="350"><style>.s0{fill:#000;}.s1{fill:#fff;}.s2{fill:#800000;}</style><style>.s0{fill:#000;}.s1{fill:#fff;}</style><style>.s0{fill:#000;}.s1{fill:#fff;}.s2{fill:none;stroke-width:0.1;stroke:#1a1a1a;}</style><g transform="translate(1341.6136,381.21141)"><g transform="matrix(0.96860998,0,0,0.96860998,-42.112952,29.692576)"><g transform="matrix(4.1909988,0,0,4.1909988,-1894.7514,-683.53725)"><path d="m318.3 107.1 0 0c-0.6 0-1.2 0.1-2 0.2-1 0.1-2.1 0.4-3.2 0.9-1.1 0.4-2.2 1-3.2 1.8-1 0.7-1.9 1.6-2.6 2.6-0.4 0.5-0.7 1.1-0.9 1.6-0.3 0.6-0.5 1.2-0.6 1.8-0.2 1.1-0.3 2.2 0 3.4 0.2 1.3 0.7 2.7 1.5 4.5 0.8 1.8 1.9 4 3.5 6.7 1.6 2.7 3.5 5.9 6 9.9 2.8 4.4 5.6 8.6 7.6 11.6 1 1.5 1.8 2.8 2.4 3.7 0.5 0.9 0.8 1.4 0.7 1.5-0.6 0.4-1.4 1-1.9 1.4-0.6 0.4-1 0.8-1.1 0.6-2-1.8-6.9-5.4-13.5-10.8-4.5-3.8-8.4-6.9-11.9-9.4-1.7-1.3-3.4-2.4-4.9-3.4-1.5-1-3-1.8-4.4-2.5-1.4-0.7-2.7-1.3-3.9-1.7-1.2-0.4-2.4-0.7-3.5-0.9-1.1-0.2-2.2-0.2-3.2-0.1-1 0.1-2.1 0.3-3.1 0.6-1.2 0.4-2.3 0.9-3.3 1.5-1 0.6-1.9 1.3-2.7 2.1-0.8 0.8-1.5 1.6-2 2.5-0.5 0.9-1 1.9-1.3 2.9-0.3 1-0.5 2.1-0.5 3.3 0 1.1 0.1 2.3 0.3 3.5 0.3 1.2 0.7 2.4 1.2 3.7 0.6 1.2 1.3 2.5 2.2 3.8 1.4 2 2.8 4 4.1 5.8 1.4 1.8 2.7 3.6 4.1 5.2 1.4 1.6 2.8 3.2 4.4 4.6 1.5 1.4 3.2 2.8 4.9 4.1 1.9 1.4 3.5 2.5 5 3.4 1.5 0.9 2.7 1.6 4 2.3l3.6 2.1c1.2 0.7 2.5 1.6 3.9 2.6-0.6 1.9-1.2 3.7-1.6 5.5-0.9 3.5-1.4 7-1.6 10.4-0.1 3.3 0 6.5 0.4 9.6 0.2 1.5 0.5 3.1 0.9 4.6 0.8 3.1 1.8 6.2 3 8.9 2.4 5.6 4.2 10.3 5.6 14.5 1.4 4.2 2.4 7.8 3 11 0.6 3 1 6 1.2 8.8 0.1 2.7 0 5.2-0.2 7.9-0.6 5.7-1.3 11.5-1.6 16.8-0.3 5.8-0.4 9.3-0.7 11.6-0.2 4.2-3.7 5.8-6.4 7.5-5.2 5.7-6.2 13.1-4.5 19.5 0.1 0.2 0.2 0.3 0.3 0.4-0.2 0-0.4 0-0.6 0.1l-133.6 41.1 47.1 21.5 179.9-40c2.4 0.2 5 0.3 7.2-0.5 5.2-0.8 8.6-6.3 12.2-7.1 1.1-0.2 2.3-0.6 3.4-1.2 1.1-0.6 2.1-1.3 3-2.2 0.9-0.8 1.6-1.8 2.1-2.7 0.3-0.5 0.5-0.9 0.6-1.4 0.1-0.5 0.2-0.9 0.2-1.4 0-0.7-0.2-1.8-0.4-3-0.5-2-1.3-3.8-1.7-5.7-0.3-1.7 0.3-3.3 0.9-4.7 1.4-2.5 3.2-4.8 4.4-7.3 1.5-2.8 2.5-5.9 3.4-8.7 1.5-5.6 2.1-11.9 2.3-17 0.2-4.6 0.3-9.8 0.3-15.8 0.1-4.4 0-8.8 0.7-12.8 0.4-2.9 1.6-5.5 2-8.2 0.7-5.5 1.5-11.1 1.9-16.8 0.2-2.9 0.4-5.8 0.5-8.7 0.1-6.1-0.2-12-1.4-17.7-1.5-7.1-4.9-14-8.8-19.5-6.3-9.2-14.1-17.3-23-22.7-9.8-5.9-20.8-8.8-31.4-9.9-5.1-0.4-9.7-0.4-14.8-0.3-0.9-0.7-1.8-1.8-2.8-3.1-1-1.4-2.1-3-3.3-4.7-1.2-1.7-2.4-3.6-3.7-5.4-1.3-1.8-2.7-3.6-4.1-5.1-2-2.6-4-5.1-6-7.4-2-2.3-3.9-4.4-5.7-6.3-1.8-1.9-3.5-3.5-4.9-4.8-1.5-1.3-2.8-2.3-3.8-3-1.4-0.9-2.4-1.4-3.4-1.7-0.5-0.1-1-0.2-1.6-0.2z" fill="#666"/><path d="m190.3 154.5c-3.8 0.1-5.9 0-7.4-0.5-2-0.7-2.9-1.8-3.9-4.8-0.7-2.2-1.1-2.8-1.8-3.3-0.8-0.5-1.3-0.7-3.4-0.8-2.3-0.1-7.8-0.6-11-1-3-0.4-3.8-0.4-4.9-0.3-0.9 0-0.9 0.1-1.1 0.3-0.3 0.4-0.2 0.7 0.5 3.3 0.7 2.8 0.9 3.6 0.9 4.7 0 1.1 0 1.2-0.3 1.4-0.4 0.2-0.7 0.1-1.1-0.3-0.6-0.9-0.9-2-0.7-2.5 0.1-0.2 0.1-0.3-0.3-2.1-1-4.3-1-5.7-0.1-6.7 1.4-1.7 9.2-4 16.6-4.9 1.4-0.2 2.9-0.4 3.3-0.5 0.4-0.1 2.9-0.8 5.6-1.6 8.2-2.4 9.8-2.7 15.5-3.3 4.5-0.5 6.3-0.5 10.3-0.2 2.5 0.2 3.7 0.2 5.1-0.1 1.2-0.2 2.1-0.5 5.1-1.8 4.3-1.8 8.1-3 11.1-3.3 0.9-0.1 1.9-0.2 2.3-0.2 0.7 0 4.6 0.5 5 0.6 0.1 0 0.2 0.2 0.3 0.4 0.2 0.5 0.9 7.5 0.9 7.9 0 0.2-0.1 0.7-0.2 1.2-0.1 0.4-0.2 1.3-0.2 1.9-0.5 5-1.3 7.1-3.5 8.4-1.2 0.7-2.3 1.2-4.1 1.5-1.3 0.3-4.8 0.3-6.4 0.1-2.5-0.3-5.6-3.1-7.2-6.5-0.4-0.7-0.4-1-0.5-1.8-0.1-0.9-0.1-1 0.1-1.5 0.2-0.6 0.2-1.1-0.1-1.6-0.2-0.3-0.3-0.3-0.6-0.4-0.8-0.1-2 0.4-2.4 1-0.2 0.3-0.4 1-0.9 3-1.8 8-3.4 10.2-8.4 12-3.1 1.1-8.4 2-12 2.2z" fill="#000"/><g transform="matrix(1.0082352,0,0,1.0082352,140.864,-681.53456)"><g transform="translate(-1.6610183,-56.474619)"><g transform="translate(-29.898328,-80.282547)"><path d="m84.7 1153.3c0 1.9-0.2 2.8-0.4 3.6 0 0-0.9 0-1.3 1.3-0.4 1.3-1.5 14.6-1.4 14.7 0.1 0.2 0.2 1.4 0.4 2.6 0.3 1.1 4.7 4.6 11.2 4.6 2.5 0 8 1.3 8.8 2.1-0.7 0.8 9.2 6.6 15.8 6.3 2.8 0.8 14.4-1.8 16.5-3.3 3.3-1.2 7.1-4.2 7.5-5.5 0.2-1.1 0.5-3.8-0.8-5.9-1.2-1.7-3.2-2.9-4.8-3-6-1.4-8.3-2.8-11.8-4.8l-1.6-1 0.2-0.5-0.7-0.5-0.5 0.4-1.2-1 0-0.5-1.5-1-0.4 0.2-0.9-1 0.4-0.6-2.1-1.5-0.5 0.4-0.8-0.9 0-0.9-2.1-1.8-0.5 0.3-1-1.2-1.1-2.1-1.9-1.3-2.2-0.1-1.5 0.4-2.6-0.4-2.5 1.7c-1 1.8-2.2 2.4-2.9 2.3-2.4-1.7-4.8-3.8-6.3-4.6l-3.7 1c-0.6 0.6-1.2 1.1-1.8 1.7z" fill="#1a1a1a"/><path d="m116.7 1161.5c-0.8 0.6-2.1 0.4-3.3 0.6-0.2 0.7-0.6 1.6-1 2.1-0.1 0.4-0.8-0.2-0.6-0.7 0.1-0.4 0.3-1 0.3-1-1.7 0.7-3.7 1.9-4.2 2.5-0.6 0.5-1-0.9-0.9-1.5 0.4-0.1 0.6-1.3 0.2-1.2l-10.5 12.8 3.5 1.6c0.9-5.8 10-12.9 10.2-12.7 1.2-0.1 1.2 0.4 3.4 0.6 0.4 0.1 0.9-0.2 1.4-0.5 0.4-1 1.6-1.8 2.5-2.8l1 1c-0.2 0.1-0.3 0.2-0.4 0.6 0 0.6 0.6 0.6 1.4 0.6 0 0.2 0.3 0.3 0 0.7-2.9 1.1-4.7 1-6.9 2.3l-0.7 2.2 2.4 1.3c0 0 1.3-0.3 1.3-0.8 0-0.5 0.4-0.9 0.4-0.9l1.3 0.3 1.6-2.1-2.6 1.1-1.9 1.3c-0.7-0.2-0.5-0.8-0.5-1.4l1-0.5c0.3-0.8 1.7-1.3 3.1-1.6l1.9-0.7 0.6-0.9 3.5 2.3c0 0.3-2.6 2.1-3.6 2.8l-0.4 0.6 1.9 0.1 1.5-1.4c0.2-0.3 0.5-0.6 0.8-1 0-0.3 0-0.7-0.2-0.8-0.1-0.1 0-0.1 0-0.2l2.6 1.5c3.5 1.9 7 3.1 11.9 4.2 1.6 1.4 3.5 2.8 1.6 4.3-3.1 2.6-5.6 2.6-8.4 3.7l-6.9 2c-2.8 0.2-5.4 0.7-8.2 0.5-0.1-0.4 0.4-1 0.8-1.6l2.6-3.1c0.2-0.6-0.2-0.1-0.7 0.2-0.7 0.9-1.2 1.2-1.6 1.4l-1.5 1.5c-0.3 0.6-1.5 0.9-1.7 0.7 0.7 0.4 0.9 1.8 0.6 2.9-0.2 0.7-0.5 0.6-1.5 0.5-45.9-13.2-13.8-39.2 2.9-23.4z" fill="#fff"/></g><g transform="translate(-29.898328,-80.282547)"><path d="m55.9 1163.1c-0.3 0.9-0.3 0.9-0.6 3.6 0 0-0.6 0.1-1.3 1.2-0.7 1.1-1.5 14.6-1.4 14.7 0.1 0.2 0.2 1.4 0.4 2.6 0.3 1.1 4.7 4.7 11.2 4.6 2.2-0.1 7.4 1.2 8.8 2.1 0.9 1.6 9.2 7 15.8 6.3 2.8 0.8 14.4-1.8 16.5-3.3 3.3-1.2 7.1-4.2 7.5-5.5 0.2-1.1 0.5-3.8-0.8-5.9-1.2-1.7-3.2-2.9-4.8-3-6-1.4-8.3-2.8-11.8-4.8l-1.6-1 0.2-0.5-0.7-0.5-0.5 0.4-1.2-1 0-0.5-1.5-1-0.4 0.2-0.9-1 0.4-0.6-2.1-1.5-0.5 0.4-0.8-0.9 0-0.9-2.1-1.8-0.5 0.3-1-1.2c-0.2-1.2-0.8-1.9-1.7-2.2-1.1-1.1-1.6-1.2-2.9-1.2-1.2-0.3-1.2 0.2-1.5 0.5-1.6-0.4-3.6-0.6-4.3 0.3-2 1.1-3.1 4.3-4.7 2.7-2.4-1.8-3.2-3.3-6.5-4.3-2.3 0.3-3.7 1.3-4.7 2.7z" fill="#000"/><path d="m54 1167.7c-0.3 0.9 3.7 7.1 5.6 6.8 1 0.5 5.8-3 5.8-3 7.4-9.5 15.6-2 20.7-1.5 0.1 0.5 0.9 0.8 1.5 0.8 0.3 0 0.1 0.6 0.1 0.6-0.8 0.6-2.1 0.4-3.3 0.6-0.2 0.7-0.6 1.6-1 2.1-0.1 0.4-0.8-0.2-0.6-0.7 0.1-0.4 0.3-1 0.3-1-1.7 0.7-3.7 1.9-4.2 2.5-0.6 0.5-1-0.9-0.9-1.5l3.1-1.9c-0.4 0.2-1.3 0.2-1.4-0.3 0-2.4-2.1-0.6-3.6-0.1 0.8-0.1 1.3 0 1.6 0.2l0.5 0.9-6.2 6.8-4.4 5.9 3.5 1.6c0.9-5.8 10-12.9 10.2-12.7 1.2-0.1 1.2 0.4 3.4 0.6 0.4 0.1 0.9-0.2 1.4-0.5 0.4-1 1.6-1.8 2.5-2.8l1 1c-0.2 0.1-0.3 0.2-0.4 0.6 0 0.6 0.6 0.6 1.4 0.6 0 0.2 0.3 0.3 0 0.7-2.9 1.1-4.7 1-6.9 2.3l-0.7 2.2 2.4 1.3c0 0 1.3-0.3 1.3-0.8 0-0.5 0.4-0.9 0.4-0.9l1.3 0.3 1.6-2.1-2.6 1.1-1.9 1.3c-0.7-0.2-0.5-0.8-0.5-1.4l1-0.5c0.3-0.8 1.7-1.3 3.1-1.6l1.9-0.7 0.6-0.9 3.5 2.3c0 0.3-2.6 2.1-3.6 2.8l-0.4 0.6 1.9 0.1 1.5-1.4c0.2-0.3 0.5-0.6 0.8-1 0-0.3 0-0.7-0.2-0.8-0.1-0.1 0-0.1 0-0.2l2.6 1.5c3.5 1.9 7 3.1 11.9 4.2 1.6 1.4 3.5 2.8 1.6 4.3-3.1 2.6-5.6 2.6-8.4 3.7l-6.9 2c-2.8 0.2-5.4 0.7-8.2 0.5-0.1-0.4 0.4-1 0.8-1.6l2.6-3.1c0.2-0.6-0.2-0.1-0.7 0.2-0.7 0.9-1.2 1.2-1.6 1.4l-1.5 1.5c-0.3 0.6-1.5 0.9-1.7 0.7 0.7 0.4 0.9 1.8 0.6 2.9-0.2 0.7-0.5 0.6-1.5 0.5-2.6-1-4.7-2.7-7.9-2.9-1.8-0.3-2.1-0.7-2.7-1.1-2.7-1.5-5.4-3-9.1-4.3-1-0.2-2.4-0.7-3-0.5-0.8 0.8 0.6 1.1 1.3 1.9-0.5 0.5-1.8-0.2-2.7-0.3-3.9 0.3-6.6-1.6-6.3-2.1-1.2-1.2-1-2.1-1.4-3.2 0.7-7.4 0.6-9.2 1.1-14.5z" fill="#fff"/><path d="m71.6 1186.1c-0.3-1.3 4-8.3 9.6-12 0.9-0.4 0.1-0.3 2.2 0.4" style="fill:none;stroke-dasharray:0.4;stroke-width:0.1;stroke:#333"/><path d="m60.9 1176.2c1.2 0.1 8.1-5.3 9.7-5.4 4 1.3 2.9 2.7 3.2 2.7-1.5 1.3-6.9 6.2-7.2 10.5" style="fill:none;stroke-dasharray:0.3;stroke-width:0.2;stroke:#000"/><path d="m60.7 1174.9c3-2.2 6.5-2.7 5.6-5.8" style="fill:none;stroke-dasharray:0.4;stroke-width:0.1;stroke:#000"/><path d="m80.7 1181.8c0 0-3.4 3-3.2 3.9 0.1 0.7 2.2-1.4 2.2-1.4 0.7-1.1 1.2-1.6 1.6-2.1m1.8 0.9 0 0c-0.2-0.1-3.4 5-2.5 5.5 1.2 0.1 1.3-3.1 2.7-4.4 0.1-0.3 0.2-0.5 0.4-0.7m1.8 0.3c0 0-1.6 6.3-1.1 6.5 0.5 0.7 1.4-4.6 1.5-4.7l0.3-1.3" class="s2" style="fill:none;stroke-width:0.1;stroke:#1a1a1a"/><path d="m82.7 1177.5c-0.2 1.3-0.5 2 0.4 2.2 3.3 2.7 5.4-1.7 5.3-1.1" style="fill:none;stroke-dasharray:0.3;stroke-width:0.1;stroke:#333"/><path d="m60.6 1181.8c-0.9-0.6-5.2-8-6.1-9.8 1.1 1.6 3.6 5 4.8 6.6 0.3 0.5 1.1 2.4 1.2 3.2zm29.3-1.5 0 0c-0.2 1.7 0.6 5.8 6.8 5.5 1.9 0.2 10.6-0.9 12.2-3.8-5.7 4.3-17.5 5.2-18.7 0z" fill="#000"/></g></g><path d="m24.2 853.8c32.7 6.7 47.2 14.4 67.9-2.3 2.3 0.6 4.6 1.2 7 1.8 19.3 5-3.3 87.8-1.9 86.8-2.6 37.4 1.9 86.8 1.9 86.8-7.6-4-37.8-1.5-38.4 5-4.3 1.6-27.9 6-46.4-1.3 3.1-2 7.1-31.2 2-85.7 0 0-32.4-30.4-3.8-87.9 2.9-1.5 9.3-3.1 11.7-3.2z" fill="#000"/></g><path d="m212.9 201.3c-3.9 0.4-8 1.5-9.9 3.7-2 2.3-3.6 7.8-4.6 16.1-1 8.6-0.6 16.6 3 21 3.5 4.2 8.8 3.8 12 2.9 3.1-0.9 4.9-2.4 6.6-5 1.9-2.8 4.5-8.1 5.5-15.4 1-7.3 0.1-14.6-2.3-18.8-2.5-4.3-6.1-4.9-10.3-4.4zm-4.1 4.6c0.6 0 0.9 0.4 1.1 1 0.1 0.4 0.1 1.9 0 4.9-0.1 3.1-0.1 4.8 0.3 4.8 0.1 0 0.3 0 0.5-0.1 0.1 0 0.2-0.1 0.3-0.1 0.3-0.2 0.6-0.3 0.8-0.4 0.2-0.1 0.8-0.1 1.6-0.1 1.6 0 2.7 1.4 3 4.5 0.5 4-0.1 6.6-0.2 14.4 0 0.7 0 1.3-0.1 1.6-0.1 0.4-0.3 0.5-0.7 0.5-0.3 0-0.7-0.6-0.8-2-0.1-0.8-0.2-2.7-0.1-6.2 0.1-3.6 0.2-5.6 0.1-6.7-0.5-1.6-1.1-2.6-1.8-2.9 0 0 0 0 0 0-1.2 0-2.1 1-2.8 3-0.3 0.9-0.7 3.4-0.9 6.9-0.2 3.5-0.3 5.8-0.4 6.5-0.1 1.6-0.4 2.4-0.9 2.5-0.4 0.1-0.6 0-0.8-0.3-0.2-0.3-0.3-1-0.3-2.3 0-0.2 0-0.5 0-0.7 0-0.5 0-1 0-1.5 0-0.8 0.1-2 0.1-2.3 0-0.5 0.1-1 0.1-1.5 0-0.5 0.1-1 0.1-1.5 0.1-1 0.1-2.1 0.2-3.1 0-0.3 0-0.5 0.1-0.8 0-0.5 0.1-1 0.1-1.6 0-0.3 0-0.5 0.1-0.8 0-0.5 0.1-1 0.1-1.5 0-0.3 0-0.5 0.1-0.8 0-0.5 0.1-1 0.1-1.5 0-0.2 0-0.5 0.1-0.7 0-0.5 0.1-1 0.1-1.4 0-0.7 0.1-1.4 0.1-2.1 0.2-3.8 0.2-5.7 0.4-6.6 0.1-0.8 0.4-1.1 0.8-1.1 0 0 0 0 0 0z" fill="#800000"/></g><path d="m-1268.6 180.2c2.3-0.5 7.1-1.4 10.6-2 3.5-0.6 7.6-1.9 9.2-2.7 1.5-0.8 4.7-1.5 6.9-1.5 6.7 0 28.8-14.7 30.6-20.4 0.3-1.1 2.4-2.7 4.5-3.6 5.6-2.4 8.6-6.4 8.6-11.9 0-2.7 1.1-6.7 2.7-9.7 2.4-4.7 2.6-6.1 2.2-16.1-0.7-17.1-5.1-36.9-8.2-36.9-0.4 0-2.7-3.9-5-8.7-5.2-10.8-12.2-18.3-18.4-19.9-6.9-1.7-9.2-3-9.2-4.9 0-2.9 4.3-16.5 6.9-21.6 3.7-7.4 8-21.3 8.2-26.5 0.2-5.3-2-22.6-6.5-51.9-3.9-25.4-5.4-36.5-5.8-42.4-0.2-2.6-0.9-6.3-1.7-8.3-2.2-5.2 0.1-8.4 9.4-13.1 4.2-2.1 9-5.3 10.7-7.2 2.4-2.5 4-3.3 6.9-3.3 3.5 0 13.3-4.9 16.1-8.1 2.5-2.8 9.7-6.8 12.4-6.8 1.6 0 3.1-0.4 3.5-1 0.3-0.5 3.3-1.5 6.7-2.2 3.3-0.7 10.3-2.6 15.5-4.3 5.2-1.7 9.8-3.1 10.3-3.1 0.5 0 3.6-1.9 6.9-4.2 3.3-2.3 7.2-4.2 8.7-4.2 1.5 0 4.7-1.2 7.1-2.6 3.9-2.3 11-4.2 19.6-5.2 1.5-0.2 5.5-1.4 9-2.8 4.7-1.8 9.2-2.6 16.9-2.9 7.6-0.3 11.1-0.9 12.4-2.1 2.4-2.1 20.6-2.3 34.4-0.3 8.5 1.2 10.4 1.2 15.9-0.3 5.3-1.5 10.8-1.7 35.4-1.3 16 0.2 34.4 0.7 40.9 1.1 9 0.5 12 0.3 12.9-0.8 1.7-2.1 2.1-33.9 0.5-52.8-1.4-17.1-2.6-23.8-6.9-37.1-3.8-11.7-6.2-15.9-15.2-25.9-7.8-8.8-8.4-9.1-18.8-13.2-14.9-5.8-21.4-7.6-27.7-7.6-4.9 0-23.9-2.4-29.8-3.7-2.8-0.6-12.3-10-20.9-20.7-3.5-4.4-17.7-19.4-31.5-33.4-13.8-14-27.8-28.5-31.1-32.3-3.3-3.8-7.1-7.5-8.4-8.1-7.9-4.2-30.6-6-37.1-3-5.4 2.6-16.9 15.1-23.3 25.4-15.9 25.7-29.4 42.9-47.9 61.5-19.4 19.5-27.9 28.6-34.6 37.1-3.2 4.1-7.2 8.6-8.8 10.1-1.6 1.5-6.5 7.3-10.8 12.9-4.3 5.6-8.3 10.4-8.7 10.6-0.4 0.2-3.9 3.9-7.8 8.4-7.8 9-13.4 20.3-15.7 31.7-0.8 3.8-2.5 11.8-3.9 17.7-1.5 6.5-2.5 14.2-2.5 19.2 0 4.6-0.9 13.8-2 20.4-1.1 6.6-2.4 15.4-2.8 19.5-1.1 11.3-0.8 67.3 0.4 81.6 0.6 7 1.2 17.7 1.2 23.9 0.1 6.1 0.5 13.8 1 17 0.5 3.2 1.4 10.1 2.1 15.4 0.6 5.2 1.8 15 2.7 21.7 1.4 10.9 2 19.3 1.7 23-0.1 0.7-2.1 1.6-4.5 2-2.4 0.4-5.9 2-7.7 3.6-1.8 1.6-5.6 4.2-8.4 5.8-7 4.1-10.1 10.5-10.4 21.7-0.2 6.3 0.2 8.9 1.7 11 1.8 2.7 1.8 3-0.5 6.8-2.3 3.8-2.3 4.7-1.7 24.3 0.6 21.2 0.9 23.2 3.3 24.1 0.8 0.3 2 2.6 2.7 5 0.7 2.5 2.4 5.4 4 6.7 6.1 4.9 11 10.5 13.5 15.4 3.2 6.3 12.5 12.3 17.9 11.4 2.4-0.4 5.5 0.6 11.5 3.6 8.3 4.2 10.7 4.6 18.3 3zm-16.4-4.2c-5.8-2.9-9.8-4.2-12.8-4.2-7.2 0-14.2-4.5-18-11.6-3-5.6-11.8-16-13.6-16-0.9 0-3.3-4.7-3.3-6.6 0-0.7-1-2.2-2.2-3.5-2-2.1-2.2-4-2.7-22.9-0.5-20.1-0.4-20.7 1.8-22.7 2.3-2 2.3-2 1 0.4-1.3 2.4-1.1 5.1 1.2 13.7 0.9 3.3 0.8 4.9-0.1 6-0.8 0.9-1 3.1-0.6 5.7 0.8 5 7.9 13.6 10.5 12.6 1.1-0.4 1.6 0 1.6 1.3 0 1.9 4.8 7.5 6.4 7.5 0.4 0 1 0.9 1.3 2 0.3 1.2 1.9 2.2 4 2.7 2.1 0.4 5 2.3 7.4 4.9 4.6 5 8.1 6.5 11.4 5 1.8-0.8 2.8-0.7 4.2 0.6 1 0.9 2.8 1.8 3.9 2 3.1 0.6 2.6 2.4-0.8 2.8-2.1 0.2-2.9 0.9-2.6 2.1 0.4 1.8 5.1 3.2 5.1 1.5 0-0.5 2.4-0.7 5.3-0.5 3.5 0.3 5.9 0 7-0.9 2.1-1.8 6.6-1.8 9.8 0 2.1 1.1 2.8 1.1 4.3-0.3 1-0.9 3.2-1.7 4.9-1.7 4.5 0 6-1.3 5.2-4.6-0.7-2.6-0.4-2.8 3.6-3.5 3.4-0.5 4.7-1.4 5.9-3.9 0.9-1.8 1.6-3.9 1.6-4.6 0-0.9 1.3-1.4 3.7-1.4 3.5 0 3.7-0.2 3.4-3.4-0.3-3.3-0.2-3.4 3.6-3.2 4.1 0.2 4.2 0.1 5.6-6.7 0.4-2.1 1.6-3.7 3.3-4.5 1.4-0.7 2.6-2.1 2.6-3.2 0-1.1 1.6-3.3 3.7-4.8 2.7-2.1 3.6-3.5 3.5-5.7-0.1-1.6 0.2-3.7 0.6-4.6 0.6-1.3 0.1-1.9-1.8-2.4-1.4-0.4-3.9-1.7-5.5-2.9-2.6-2-2.7-2.4-1.2-3.3 1.2-0.7 2.6-0.4 4.4 0.8 3 1.9 5.7 1.5 5.7-1 0-0.9-0.9-3.1-2-5.1-1.1-1.9-2.3-6.1-2.7-9.2l-0.7-5.7 3.1 2.5c3.5 2.8 4.5 5.7 7.6 21.7 3.1 16.1 3 23.9-0.5 31.6-2 4.5-2.7 7.3-2.2 9.6 0.8 4.2-2.2 8.3-7.3 10-2.5 0.8-4.4 2.5-6 5.3-3.4 6-22.1 17.9-29.8 18.9-3.1 0.4-6.3 1.2-7.1 1.7-0.9 0.5-3.9 1.3-6.9 1.7-9 1.3-15.4 2.6-16.1 3.4-1.3 1.3-3.6 0.7-12-3.5zm12.7-12.3c0-0.9-0.5-1.4-1.1-1-0.6 0.4-1.1 1.1-1.1 1.7 0 0.5 0.5 1 1.1 1 0.6 0 1.1-0.7 1.1-1.7zm43.5-8.9c0-0.6-0.5-1.1-1.1-1.1-0.6 0-1.1 0.2-1.1 0.5 0 0.3 0.5 0.8 1.1 1.1 0.6 0.4 1.1 0.1 1.1-0.5zm18-51.5c0-0.9 0.7-1.6 1.6-1.6 0.9 0 1.6 0.7 1.6 1.6 0 0.9-0.7 1.6-1.6 1.6-0.9 0-1.6-0.7-1.6-1.6zM-1334.9 79.8c-2.1-6.4-2-13.7 0.2-12.4 0.5 0.3 0.9 1.5 0.9 2.6 0 1.1 0.9 2.5 2 3.1 1.8 1 5.2 7.2 4.3 7.8-0.2 0.1-1.4 0.8-2.5 1.5-3.2 1.9-3.4 1.7-4.9-2.6zm122-16.8c0-2 1.7-1.8 2.5 0.2 1.1 2.9 0.7 4-0.9 2.6-0.9-0.7-1.6-2-1.6-2.8zm-124 0.4c0-0.7 1-3.8 2.3-6.9 1.6-3.8 2.9-5.6 4.2-5.6 2.5 0 2.5 0.1-0.9 7.5-2.6 5.6-5.6 8.3-5.6 4.9zm64.6-13.1c-3.7-1-9.4-1.9-12.5-2.2-3.1-0.2-6.6-0.9-7.6-1.5-1.1-0.6-3.4-1-5.1-1-1.8 0-6.6-0.6-10.6-1.3-7.2-1.2-7.5-1.2-10.1 1.2-1.7 1.6-2.7 2-2.7 1.1 0-2.3 4.4-6.3 7-6.3 1.3 0 3.6-0.5 5.1-1 2.7-1 2.7-1.2 2.1-8.2-0.3-3.9-1.3-11.9-2.1-17.8-0.8-5.8-1.8-14.4-2.1-19.1-0.4-4.7-1.1-10.2-1.6-12.2-0.9-3.4-1.8-17.9-4.1-65.7-1.1-22.8 0.3-68.3 2.5-78.4 0.9-4.4 2-13.4 2.3-20.1 0.5-11.4 2.7-24 7.8-44.7 3.2-12.9 7.3-20.1 18.3-32 5.5-5.9 12.8-14.6 16.4-19.3 3.5-4.7 7.7-9.7 9.3-11.1 1.6-1.5 5.4-5.8 8.5-9.5 3.1-3.8 14.8-16.4 26.1-28.1 28.6-29.6 34.5-36.9 53-66.2 8.5-13.4 15-20.9 22.1-25.6 4.2-2.7 5.6-3.1 13.4-3.1 5.1 0 12.2 0.9 17 2.1l8.3 2.1 10.6 11.4c5.8 6.2 20.1 20.9 31.7 32.6 11.6 11.7 23.7 24.5 26.8 28.4 3.1 3.9 9.4 10.9 13.9 15.4l8.2 8.3 9.5 1.3c5.2 0.7 14.2 1.7 20 2.3 5.7 0.6 13.6 2.2 17.5 3.6 3.9 1.4 9.7 3.4 12.9 4.5 4.7 1.6 7.4 3.6 14.1 10.5 4.6 4.7 9.4 10.4 10.8 12.7 2.8 4.7 8.5 21.4 10.2 29.7 2.5 12.6 4.6 52.9 3.4 65.8l-0.6 6.7-16-0.6c-11-0.4-17.1-1.2-19.6-2.3-2.9-1.3-4-1.4-5.6-0.3-3 1.9-6.1 0.6-5.4-2.1 0.3-1.2 0-2.6-0.8-3-2.1-1.3-7.9 1.6-7.9 3.9 0 1.5-1 2-4 2.3-3.1 0.3-4 0-4-1.4 0-1.3 0.6-1.6 2.5-1.1 3 0.7 5.5-1.6 4.5-4.2-0.4-0.9-1.6-2-2.8-2.3-2.4-0.6-5.3-5.4-5.3-8.7 0-2.3 1.5-2.9 2.7-1.1 1 1.7 2.6 1.3 5.1-1.4 1.3-1.4 4.2-2.8 6.6-3.2 6.8-1.2 8-1.7 8-3.8 0-3-2.6-4.7-4.2-2.7-0.7 0.9-2.8 2.3-4.6 3.2-4.3 2.1-6 0.5-2.9-2.7 1.8-1.8 2-2.5 1-3.2-2-1.2 1.5-6.3 4.3-6.3 1.6 0 2.1-0.7 2.1-3.1 0-2.2 0.6-3.2 2.1-3.6 2.8-0.7 2.7-2-0.5-4.9-3.3-3.1-5.2-2-4.4 2.7 0.6 3.2 0.3 3.7-2.5 5.2-2 1-6 1.6-10.7 1.6l-7.5 0 0.3 2.9c0.3 2.6-0.1 3-3.1 3.2-4.2 0.4-4.3-0.2-0.5-3.5 2.7-2.4 2.8-2.7 1.2-4.3-1.7-1.7-4.7-1.2-3.5 0.6 0.3 0.5 0.1 1.2-0.5 1.5-1.3 0.8-3.6-3.3-2.7-4.8 0.4-0.6 0.4-2.8 0-4.8-0.6-3.3-0.9-3.5-2.3-2.1-0.9 0.9-2.2 1.6-3 1.6-0.8 0-2.8 0.7-4.4 1.6-2.8 1.4-3.1 1.4-3.4-0.2-0.2-1 0.5-2.4 1.5-3.2 1.4-1.1 1.6-1.7 0.7-2.6-0.9-0.9-1.6-0.9-2.8 0.1-2.3 1.9-4.1 0.3-3.3-3 1-4.2 2-4.7 5.7-2.6 2.9 1.7 3.5 1.7 4.4 0.3 0.8-1.3 1.5-1.1 4.1 1.4 4 3.8 8.1 3.5 10.6-0.7 1.7-2.8 1.7-3.1-0.3-4.5-2.1-1.5-2-1.6 1.1-4.2l3.2-2.7-5.7 0.7-5.7 0.7 0.7-4.4c0.9-5.5-1.3-6.9-5.2-3.3-2.7 2.5-5.8 2.3-5.8-0.5 0-0.9 1.2-1.9 2.7-2.3 3-0.8 3-0.7 1.5-6-1-3.5-1.4-3.9-3.7-3.3-2.1 0.5-2.6 0.2-2.6-1.4 0-1.1-1.3-3.5-2.9-5.3-2.2-2.5-3.6-3.2-5.7-2.7-2.2 0.4-3.4-0.3-6.1-3.7-1.8-2.3-3.3-4.7-3.3-5.4 0-0.7-1.5-1.1-3.4-0.9-2.8 0.2-3.4-0.1-3.1-1.6 0.2-1.4-0.4-1.9-2.9-1.9-2.1 0-3.2-0.5-3.2-1.5 0-0.9-1.7-1.8-4.5-2.3-2.5-0.4-5.8-1.7-7.4-2.9-2.8-2.1-3-2.1-5-0.3-3 2.7-9.8 3.3-13.8 1.4-3.1-1.5-3.4-1.5-4.3 0.3-0.9 1.7-2.2 1.9-9 1.7-6.1-0.2-8 0.1-8 1.2 0 0.8-0.4 1.2-0.8 1-1.6-0.9-5.5 1.3-4.9 2.8 0.8 2.2-1 3-4.1 1.8-1.9-0.7-3.2-0.6-5 0.6-1.9 1.3-2.9 1.4-4.9 0.5-3.5-1.6-5.7-1.5-5.7 0.3 0 0.8-1.2 2.5-2.7 3.6-2.2 1.7-3.2 1.9-5.6 1-1.6-0.6-4.7-0.8-6.7-0.4-3.1 0.6-3.9 1.3-4.4 3.9-0.5 2.5-1.2 3.2-3.4 3.2-3.9 0-8.4 2.6-9.8 5.8-1.3 2.8-3.8 3.6-5 1.7-0.4-0.6-1-1.1-1.5-1.1-1.3 0-8.6 7.1-8.6 8.4 0 0.6-0.7 1.1-1.5 1.1-3.2 0-12.3 3.6-12.3 4.8 0 2.4-3.4 4.1-7.7 4-3.7-0.1-4.8 0.4-8.4 4.1-2.3 2.4-4.1 5.3-4.1 6.7 0 1.3-0.7 3-1.6 3.8-1.8 1.5-2.2 5.3-0.5 5.3 1.9 0 1.1 2.3-2.2 6.4-2.4 3-3.2 5.1-3.1 8.1 0.1 2.2-0.2 5.4-0.6 7-0.5 2-0.3 2.9 0.6 2.9 0.7 0-0.2 1.4-2 3.1-2.1 2-3.3 4.1-3.3 6.1 0 1.7-0.7 5.4-1.5 8.3-0.9 3.4-1.1 5.8-0.4 6.6 0.6 0.7 0.9 2.8 0.7 4.8-0.3 2.7-0.8 3.4-2.2 3.2-1.1-0.2-1.9 0.4-1.9 1.4 0 0.9 0.4 1.4 1 1.1 0.5-0.3 0.7 0.3 0.4 1.5-0.3 1.1 0 4.5 0.7 7.5 1.1 4.7 1.1 5.6-0.4 7.3-2.3 2.6-2.1 4.9 0.6 6.7 2 1.3 2.3 2.4 2.1 7.6-0.3 6.7 1.6 8.7 5 5.6 2.5-2.3 3.3-2.2 3.3 0.4 0 1.8 0.3 2 2 0.9 1.6-1 2.6-0.9 4.8 0.5 1.5 1 2.8 2.2 2.8 2.7 0 1.7-3 3.4-6.9 3.9-4.5 0.6-8.7 3-9.5 5.7-0.3 1-3.4 3.1-6.7 4.7-11.2 5.2-15.3 11.5-11.6 18 0.7 1.3 1.4 4.2 1.4 6.6 0.2 7.3 2.3 22.7 5.2 39.8 3.8 21.9 6.9 45.8 6.9 53.1 0 6.1-4 19.8-8.3 28.2-2.7 5.2-7.5 21.4-7.2 24.2 0.1 1.4-0.8 2.3-3 3-1.7 0.5-4.3 1.5-5.6 2.2-3.8 2-20.2 2-27.9 0zm308.1-253c0.9-2.2-0.1-4-2.2-4-1.9 0-1.9 1.2 0 3.8 1.4 1.9 1.6 1.9 2.2 0.3zm13.7-26.7c-0.4-0.9-1.1-1.7-1.7-1.7-1.4 0-0.5 2.4 1.1 2.9 0.8 0.3 1-0.2 0.6-1.3zm-34.3-6.4c0-1 1-1.6 2.7-1.6 1.9 0 2.7-0.6 2.7-2.1 0-1.4 0.7-2.1 2-2.1 1.2 0 2.7-1.3 3.7-3.3 1.7-3.4 1.4-5.2-0.7-5.2-2 0-12.2 5.4-14.1 7.4-1.7 1.8-1.7 2.2 0.1 5.2 2.1 3.5 3.6 4.2 3.6 1.7zm0.9-19.2c1.4-1 2.2-2.5 2-3.8-0.4-3-3-3.6-3.7-0.9-0.3 1.2-1 2.2-1.5 2.2-1.2 0-1.2 2.9 0 3.6 0.5 0.3 1.9-0.2 3.2-1.1zm4.7-9.7c2.3-2.5 2.2-2.8-0.6-5.4-2.3-2.1-2.3-2.2-0.1-2.2 3.3 0 5.2-2.7 3.4-4.8-1.1-1.3-2.5-1.5-6.8-0.9-3 0.4-6.2 1.2-7.3 1.7-1.1 0.6-2.6 0.8-3.5 0.4-1.3-0.5-1.3-1.1 0.2-3.9 2-3.8 1-5.1-4-5.2-1.8 0-2.9-0.6-2.9-1.5 0-0.8-0.4-1.7-0.8-2-0.4-0.3-0.8 1.5-0.9 3.9 0 3.4 0.5 4.8 2.4 6.3 2.5 2 3.3 6.4 1.4 7.6-1.6 1-1.3 4.8 0.4 4.8 0.8 0 2.8-1 4.4-2.3l3-2.3-0.7 2.9c-0.5 2.2-0.3 3.1 1.1 3.6 1 0.4 2 0.2 2.2-0.6 0.6-1.8 4.4-1.5 5.2 0.3 0.8 2.1 1.8 2 3.9-0.3zm-5-18.7c0.8-2-0.4-3.8-2.3-3.8-2.2 0-3.2 3.2-1.4 4.3 2.1 1.3 3.1 1.2 3.7-0.6zm-8.1-5.9c1.4-0.9 1.4-1.2 0-2.1-2-1.3-3.7-0.8-3.7 1 0 1.9 1.7 2.3 3.7 1zm43.5-5.3c0-0.6-0.5-1.1-1.1-1.1-0.6 0-1.1 0.5-1.1 1.1 0 0.6 0.5 1.1 1.1 1.1 0.6 0 1.1-0.5 1.1-1.1zm-62.5-0.5c0-0.3-0.5-0.8-1.1-1.1-0.6-0.4-1.1-0.1-1.1 0.5 0 0.6 0.5 1.1 1.1 1.1 0.6 0 1.1-0.2 1.1-0.5zm-14.3-1.7c-0.4-0.6-1.1-1.1-1.7-1.1-0.6 0-0.8 0.5-0.4 1.1 0.4 0.6 1.1 1.1 1.7 1.1 0.6 0 0.8-0.5 0.4-1.1zm-171.7 155.8c0.4-0.6 1.1-1.1 1.7-1.1 0.6 0 0.8 0.5 0.4 1.1-0.4 0.6-1.1 1.1-1.7 1.1-0.6 0-0.8-0.5-0.4-1.1zm189.2-88c0-0.6 0.5-1.1 1.1-1.1 0.6 0 1.1 0.5 1.1 1.1 0 0.6-0.5 1.1-1.1 1.1-0.6 0-1.1-0.5-1.1-1.1zm-2.1-21c0-1.5 2.5-3.4 4.5-3.4 2.4 0 2.4 1 0.1 2.8-2.1 1.6-4.5 1.9-4.5 0.6zm-10.6-16.1c0-1.3 3-2.6 3.9-1.8 0.9 0.9-0.6 2.9-2.3 2.9-0.8 0-1.5-0.5-1.5-1.1zm-14.8-24.3c0-0.6 0.7-1.1 1.6-1.1 0.9 0 1.6 0.5 1.6 1.1 0 0.6-0.7 1.1-1.6 1.1-0.9 0-1.6-0.5-1.6-1.1z" style="fill:#fff;stroke-width:3.1;stroke:#e6e6e6"/><path d="m-1273 179.6c0.7-0.7 7.1-2.1 16.1-3.4 2.9-0.4 6-1.2 6.9-1.7 0.9-0.5 4.1-1.3 7.1-1.7 7.7-1 26.5-13 29.8-18.9 1.6-2.8 3.5-4.5 6-5.3 5.1-1.7 8.1-5.8 7.3-10-0.4-2.4 0.2-5.2 2.2-9.6 3.4-7.7 3.6-15.5 0.5-31.6-3.1-16.1-4.1-18.9-7.6-21.7l-3.1-2.5 0.7 5.7c0.4 3.1 1.6 7.3 2.7 9.2 1.1 1.9 2 4.2 2 5.1 0 2.4-2.7 2.9-5.7 1-1.8-1.2-3.2-1.4-4.4-0.8-1.5 0.9-1.4 1.3 1.2 3.3 1.6 1.3 4.1 2.6 5.5 2.9 1.9 0.5 2.3 1.1 1.8 2.4-0.4 0.9-0.7 3-0.6 4.6 0.1 2.1-0.8 3.6-3.5 5.7-2 1.5-3.7 3.7-3.7 4.8 0 1.1-1.2 2.5-2.6 3.2-1.6 0.7-2.8 2.4-3.3 4.5-1.4 6.8-1.5 6.9-5.6 6.7-3.8-0.2-3.9-0.1-3.6 3.2 0.3 3.3 0.1 3.4-3.4 3.4-2.4 0-3.7 0.5-3.7 1.4 0 0.8-0.7 2.9-1.6 4.6-1.3 2.5-2.5 3.4-5.9 3.9-4 0.6-4.3 0.9-3.6 3.5 0.8 3.3-0.6 4.5-5.2 4.6-1.7 0-3.9 0.8-4.9 1.7-1.5 1.4-2.3 1.5-4.3 0.3-3.2-1.7-7.7-1.7-9.8 0-1.1 0.9-3.5 1.2-7 0.9-2.9-0.3-5.3-0.1-5.3 0.5 0 1.7-4.7 0.4-5.1-1.5-0.2-1.3 0.5-1.9 2.6-2.1 3.4-0.4 3.9-2.3 0.8-2.8-1.1-0.2-2.9-1.1-3.9-2-1.4-1.3-2.4-1.4-4.2-0.6-3.3 1.5-6.8 0-11.4-5-2.4-2.5-5.2-4.5-7.4-4.9-2.1-0.4-3.7-1.5-4-2.7-0.3-1.1-0.9-2-1.3-2-1.6 0-6.4-5.6-6.4-7.5 0-1.3-0.5-1.7-1.6-1.3-2.6 1-9.7-7.6-10.5-12.6-0.4-2.6-0.2-4.8 0.6-5.7 0.9-1.1 0.9-2.6 0.1-6-2.2-8.6-2.4-11.3-1.2-13.7 1.3-2.4 1.3-2.4-1-0.4-2.2 2-2.3 2.5-1.8 22.7 0.5 18.9 0.7 20.8 2.7 22.9 1.2 1.3 2.2 2.9 2.2 3.5 0 1.9 2.4 6.6 3.3 6.6 1.8 0 10.6 10.4 13.6 16 3.8 7.1 10.8 11.6 18 11.6 3 0 7 1.3 12.8 4.2 8.4 4.2 10.7 4.9 12 3.5zm-1.4-15.1c0-0.5 0.5-1.3 1.1-1.7 0.6-0.4 1.1 0.1 1.1 1 0 0.9-0.5 1.7-1.1 1.7-0.6 0-1.1-0.4-1.1-1zm43.5-10.2c0-0.3 0.5-0.5 1.1-0.5 0.6 0 1.1 0.5 1.1 1.1 0 0.6-0.5 0.8-1.1 0.5-0.6-0.4-1.1-0.9-1.1-1.1zm23.3-50.8c0-0.9-0.7-1.6-1.6-1.6-0.9 0-1.6 0.7-1.6 1.6 0 0.9 0.7 1.6 1.6 1.6 0.9 0 1.6-0.7 1.6-1.6zM-1330.1 82.4c1.2-0.7 2.3-1.4 2.5-1.5 1-0.5-2.5-6.8-4.3-7.8-1.1-0.6-2-2-2-3.1 0-2.4-1.7-3.8-2.3-1.9-1.1 3.4 1.4 15.7 3.2 15.6 0.4 0 1.7-0.6 2.8-1.3zm120.3-16.4c0-1.9-1.3-4.5-2.2-4.5-1.5 0-1.1 2.8 0.6 4.2 1 0.8 1.6 0.9 1.6 0.2zm-121.6-7.5c3.4-7.4 3.4-7.5 0.9-7.5-1.3 0-2.6 1.7-4.2 5.6-2.7 6.4-2.9 8.2-0.9 8.2 0.8 0 2.7-2.8 4.2-6.3zm86.9-8.2c1.3-0.7 3.8-1.7 5.6-2.2 2.2-0.7 3.1-1.6 3-3-0.3-2.8 4.6-19 7.2-24.2 4.3-8.4 8.3-22.1 8.3-28.2 0-7.3-3.1-31.2-6.9-53.1-2.9-17.1-4.9-32.4-5.2-39.8-0.1-2.3-0.7-5.3-1.4-6.6-3.7-6.5 0.4-12.8 11.6-18 3.4-1.6 6.4-3.7 6.7-4.7 0.8-2.6 5-5.1 9.5-5.7 3.8-0.5 6.9-2.2 6.9-3.9 0-0.5-1.2-1.7-2.8-2.7-2.2-1.5-3.1-1.6-4.8-0.5-1.7 1.1-2 1-2-0.9 0-2.6-0.8-2.7-3.3-0.4-3.5 3.1-5.3 1.1-5-5.6 0.2-5.2-0.1-6.2-2.1-7.6-2.7-1.8-2.9-4.1-0.6-6.7 1.5-1.6 1.5-2.6 0.4-7.3-0.7-3-1-6.3-0.7-7.5 0.3-1.1 0.1-1.8-0.4-1.5-0.5 0.3-1-0.2-1-1.1 0-1 0.7-1.6 1.9-1.4 1.4 0.2 1.9-0.5 2.2-3.2 0.2-1.9-0.1-4.1-0.7-4.8-0.6-0.8-0.5-3.2 0.4-6.6 0.8-2.9 1.4-6.7 1.5-8.3 0-2 1.2-4.1 3.3-6.1 1.8-1.7 2.7-3.1 2-3.1-0.9 0-1.1-0.9-0.6-2.9 0.4-1.6 0.7-4.7 0.6-7-0.1-3 0.7-5.1 3.1-8.1 3.3-4.1 4-6.4 2.2-6.4-1.6 0-1.3-3.8 0.5-5.3 0.9-0.7 1.6-2.4 1.6-3.8 0-1.4 1.8-4.3 4.1-6.7 3.6-3.7 4.7-4.3 8.4-4.1 4.3 0.2 7.7-1.6 7.7-4 0-1.2 9.2-4.8 12.3-4.8 0.8 0 1.5-0.5 1.5-1.1 0-1.3 7.3-8.4 8.6-8.4 0.5 0 1.1 0.5 1.5 1.1 1.2 1.9 3.7 1.1 5-1.7 1.4-3.2 5.9-5.8 9.8-5.8 2.2 0 2.9-0.6 3.4-3.2 0.5-2.6 1.3-3.3 4.4-3.9 2.1-0.4 5.1-0.2 6.7 0.4 2.4 0.9 3.4 0.8 5.6-1 1.5-1.2 2.7-2.8 2.7-3.6 0-1.8 2.1-1.9 5.7-0.3 2.1 0.9 3.1 0.8 4.9-0.5 1.7-1.2 3-1.4 5-0.6 3.1 1.2 4.9 0.3 4.1-1.8-0.6-1.5 3.3-3.8 4.9-2.8 0.4 0.3 0.8-0.2 0.8-1 0-1.1 1.8-1.4 8-1.2 6.8 0.2 8.1 0 9-1.7 1-1.8 1.3-1.8 4.3-0.3 4 2 10.8 1.3 13.8-1.4 2-1.8 2.2-1.8 5 0.3 1.6 1.2 4.9 2.5 7.4 2.9 2.8 0.5 4.5 1.3 4.5 2.3 0 1 1.2 1.5 3.2 1.5 2.5 0 3.2 0.4 2.9 1.9-0.3 1.5 0.4 1.8 3.1 1.6 2-0.2 3.4 0.2 3.4 0.9 0 0.6 1.5 3.1 3.3 5.4 2.7 3.4 3.9 4.1 6.1 3.7 2.1-0.4 3.4 0.2 5.7 2.7 1.6 1.8 2.9 4.2 2.9 5.3 0 1.6 0.5 1.9 2.6 1.4 2.3-0.6 2.7-0.2 3.7 3.3 1.5 5.3 1.5 5.2-1.5 6-1.5 0.4-2.7 1.4-2.7 2.3 0 2.7 3.1 3 5.8 0.5 3.8-3.6 6-2.2 5.2 3.3l-0.7 4.4 5.7-0.7 5.7-0.7-3.2 2.7c-3.1 2.6-3.1 2.7-1.1 4.2 2 1.5 2 1.7 0.3 4.5-2.5 4.2-6.6 4.5-10.6 0.7-2.6-2.5-3.3-2.7-4.1-1.4-0.9 1.4-1.4 1.3-4.4-0.3-3.7-2.1-4.7-1.6-5.7 2.6-0.8 3.3 1 4.9 3.3 3 1.2-1 1.9-1 2.8-0.1 0.9 0.9 0.8 1.6-0.7 2.6-1.1 0.8-1.7 2.2-1.5 3.2 0.3 1.6 0.7 1.6 3.4 0.2 1.7-0.9 3.7-1.6 4.4-1.6 0.8 0 2.1-0.7 3-1.6 1.4-1.4 1.7-1.2 2.3 2.1 0.4 2 0.4 4.2 0 4.8-0.9 1.5 1.4 5.6 2.7 4.8 0.6-0.3 0.8-1 0.5-1.5-1.1-1.8 1.8-2.3 3.5-0.6 1.6 1.7 1.6 2-1.2 4.3-3.8 3.3-3.7 3.9 0.5 3.5 3.1-0.3 3.4-0.7 3.1-3.2l-0.3-2.9 7.5 0c4.7 0 8.7-0.6 10.7-1.6 2.8-1.5 3.1-2 2.5-5.2-0.9-4.6 1-5.8 4.4-2.7 3.1 2.9 3.2 4.2 0.5 4.9-1.5 0.4-2.1 1.4-2.1 3.6 0 2.3-0.5 3.1-2.1 3.1-2.8 0-6.3 5.1-4.3 6.3 1 0.6 0.8 1.4-1 3.2-3.2 3.2-1.4 4.8 2.9 2.7 1.8-0.9 3.9-2.3 4.6-3.2 1.6-1.9 4.2-0.2 4.2 2.7 0 2-1.1 2.6-8 3.8-2.3 0.4-5.3 1.9-6.6 3.2-2.5 2.7-4 3.1-5.1 1.4-1.1-1.8-2.7-1.2-2.7 1.1 0 3.4 2.9 8.1 5.3 8.7 1.2 0.3 2.5 1.3 2.8 2.3 1 2.6-1.5 4.9-4.5 4.2-1.9-0.5-2.5-0.2-2.5 1.1 0 1.4 0.8 1.7 4 1.4 3-0.3 4-0.8 4-2.3 0-2.3 5.9-5.1 7.9-3.9 0.8 0.5 1.1 1.8 0.8 3-0.7 2.7 2.4 4 5.4 2.1 1.7-1 2.8-1 5.6 0.3 2.5 1.1 8.6 1.8 19.6 2.3l16 0.6 0.6-6.7c1.2-13-0.9-53.3-3.4-65.8-1.7-8.3-7.4-25-10.2-29.7-1.4-2.3-6.3-8.1-10.8-12.7-6.7-6.8-9.4-8.9-14.1-10.5-3.2-1.1-9-3.1-12.9-4.5-3.9-1.4-11.8-3-17.5-3.6-5.7-0.6-14.7-1.6-20-2.3l-9.5-1.3-8.2-8.3c-4.5-4.6-10.8-11.5-13.9-15.4-3.1-3.9-15.2-16.7-26.8-28.4-11.6-11.7-25.8-26.4-31.7-32.6l-10.6-11.4-8.3-2.1c-4.9-1.2-12-2.1-17-2.1-7.8 0-9.2 0.3-13.4 3.1-7.2 4.6-13.6 12.1-22.1 25.6-18.5 29.3-24.3 36.6-53 66.2-11.3 11.7-23 24.3-26.1 28.1-3.1 3.8-6.9 8.1-8.5 9.5-1.6 1.5-5.8 6.5-9.3 11.1-3.5 4.7-10.9 13.3-16.4 19.3-11 11.9-15.1 19.1-18.3 32-5.1 20.7-7.3 33.3-7.8 44.7-0.3 6.7-1.3 15.8-2.3 20.1-2.2 10.1-3.7 55.6-2.5 78.4 2.3 47.8 3.3 62.4 4.1 65.7 0.5 2 1.2 7.5 1.6 12.2 0.4 4.7 1.3 13.3 2.1 19.1 0.8 5.8 1.7 13.8 2.1 17.8 0.6 7 0.6 7.2-2.1 8.2-1.5 0.6-3.8 1-5.1 1-2.6 0-7 4-7 6.3 0 0.9 0.9 0.6 2.7-1.1 2.6-2.4 2.9-2.5 10.1-1.2 4.1 0.7 8.9 1.3 10.6 1.3 1.8 0 4.1 0.5 5.1 1 1.1 0.6 4.5 1.2 7.6 1.5 3.1 0.2 8.8 1.2 12.5 2.2 7.7 2 24.1 2 27.9 0zm-31.3-5.3c-16.3-8.6-15.3-8.3-19.7-6.8-4.9 1.6-8.4 0.3-9.1-3.4-0.8-4.1-4.8-36-5.4-43.7-0.4-4.1-1.1-9.3-1.6-11.7-1.5-6.4-4.2-68-4.2-94.4 0-21.8 1.3-38.4 4.2-53.3 0.6-3.1 1.1-9.8 1.1-14.8 0-5 1-13.4 2.1-18.7 1.1-5.2 2.6-12.2 3.2-15.4 3.6-18.3 8-27.1 19.9-40.1 5-5.5 11.7-13.3 14.8-17.5 3.1-4.2 8.4-10.4 11.7-13.9 3.3-3.5 7.8-8.5 9.9-11.1 2.1-2.6 13-14.3 24.3-26 22.2-22.9 31.6-33.8 39.7-45.9 7.5-11.1 14.6-22.2 18.2-28.3 3.8-6.5 14.7-17 19.8-19.1 5.3-2.2 15-1.9 25.5 0.7l9 2.3 11.6 12.3c6.4 6.8 20.3 21.1 30.9 31.9 16.8 17 29.4 30.9 36.4 39.9 1.9 2.5 1.9 2.6-0.3 4.9-1.2 1.3-2.8 3.2-3.6 4.3-1.3 1.8-1.5 1.9-4.6 0.1-3.1-1.8-3.3-1.8-7.4 1-5 3.4-4.8 3.4-7.9 0.7-3-2.6-6.1-2.7-8.6-0.4-1.8 1.6-2.2 1.6-5.5 0-4.7-2.2-6.3-2.2-8.6 0.4-1.1 1.2-2.8 2.1-3.8 2.1-1 0-3.1 1.4-4.5 3.2-3.4 4-4.7 4-8.5 0-3.5-3.7-4.8-3.4-4.1 1 0.4 2.6 0.1 3.2-1.4 3.2-1 0-2.7-0.8-3.8-1.7-2.5-2.3-3.6-1.3-5.1 4.3-1.4 5.4-4.6 7.1-9.3 4.9-3.9-1.8-6.3-1.5-9.6 1.3-1.6 1.3-4.1 2.5-5.5 2.6-1.4 0.1-3.2 0.8-4.1 1.5-0.9 0.8-2.5 1.2-3.5 1.1-1-0.2-3 1.3-4.7 3.4-1.6 2.1-3.6 3.8-4.4 3.8-0.9 0-2.4 1-3.4 2.1-1 1.2-2.4 2.1-3 2.1-0.7 0-2.1 1-3.2 2.2-1.6 1.8-2.7 2-6 1.5-3.6-0.6-4.1-0.4-5.3 2.1-1.3 2.9-1.8 3.1-6.5 2.8-1.6-0.1-5.5 0.6-8.7 1.5-5.4 1.6-5.8 2-5.8 4.8 0 2.6-0.8 3.6-4.7 5.9-6.2 3.6-14.9 13.2-16.5 18.2-0.7 2.2-3.7 9-6.5 15.1-9 19.1-9.2 20.2-12.1 59.9-3.4 45.9-2.1 71.2 5.5 115 2.7 15.7 5 32 6.5 46.3 0.6 5.7 0.2 8-2.8 17-1.9 5.7-4.5 12.5-5.8 15.2-1.3 2.6-3.2 7.9-4.3 11.7-3 11-3 11-9.6 10.3-4.9-0.5-5.9-0.3-6.8 1.4-1.3 2.5-4.1 3.1-13.3 2.7-4.9-0.2-8.8-1-11.3-2.3zm307.7-250.8c0-1.2 2.9-1.1 3.7 0.3 0.4 0.6 0.4 1.9 0 2.9-0.6 1.7-0.8 1.6-2.2-0.3-0.8-1.1-1.5-2.4-1.5-2.9zm15.1-24c-0.6-1.9 1.6-1.5 2.3 0.4 0.4 1 0.2 1.5-0.6 1.3-0.7-0.2-1.4-1-1.7-1.7zm-35.6-7.7c-1.8-3-1.8-3.4-0.1-5.2 1.9-2 12.1-7.4 14.1-7.4 2.1 0 2.3 1.8 0.7 5.2-1 2-2.5 3.3-3.7 3.3-1.3 0-2 0.7-2 2.1 0 1.6-0.7 2.1-2.7 2.1-1.6 0-2.7 0.6-2.7 1.6 0 2.5-1.5 1.8-3.6-1.7zm0.4-18.5c0-0.8 0.4-1.5 0.9-1.5 0.5 0 1.2-1 1.5-2.2 0.7-2.7 3.3-2.1 3.7 0.9 0.2 1.3-0.6 2.8-2 3.8-2.6 1.8-4.1 1.4-4.1-1zm4.9-8.4c-0.7-1.9-4.6-2.1-5.2-0.3-0.2 0.7-1.2 0.9-2.2 0.6-1.4-0.5-1.6-1.4-1.1-3.6l0.7-2.9-3 2.3c-1.6 1.3-3.6 2.3-4.4 2.3-1.7 0-2-3.8-0.4-4.8 1.9-1.2 1.1-5.6-1.4-7.6-1.9-1.5-2.4-3-2.4-6.3 0-2.4 0.4-4.2 0.9-3.9 0.4 0.3 0.8 1.2 0.8 2 0 1 1.1 1.5 2.9 1.5 5 0 6 1.3 4 5.2-1.5 2.9-1.5 3.4-0.2 3.9 0.8 0.3 2.4 0.1 3.5-0.4 1.1-0.6 4.4-1.3 7.3-1.7 4.2-0.6 5.7-0.4 6.8 0.9 1.8 2.1-0.2 4.8-3.4 4.8-2.2 0-2.2 0 0.1 2.2 2.8 2.6 2.8 2.9 0.6 5.4-2.1 2.4-3.1 2.4-3.9 0.3zm-4.8-18.5c-1.8-1.1-0.8-4.3 1.4-4.3 2 0 3.1 1.8 2.3 3.8-0.7 1.8-1.6 1.9-3.7 0.6zm-8.1-7.5c0-1.9 1.7-2.3 3.7-1 1.4 0.9 1.4 1.2 0 2.1-2 1.3-3.7 0.8-3.7-1zm45.1-4.2c0-0.6 0.5-1.1 1.1-1.1 0.6 0 1.1 0.5 1.1 1.1 0 0.6-0.5 1.1-1.1 1.1-0.6 0-1.1-0.5-1.1-1.1zm-62.5-1.1c0-0.6 0.5-0.8 1.1-0.5 0.6 0.4 1.1 0.9 1.1 1.1 0 0.3-0.5 0.5-1.1 0.5-0.6 0-1.1-0.5-1.1-1.1zm-14.3-1c-0.4-0.6-0.2-1.1 0.4-1.1 0.6 0 1.4 0.5 1.7 1.1 0.4 0.6 0.2 1.1-0.4 1.1-0.6 0-1.4-0.5-1.7-1.1zm-167.5 155.8c0.4-0.6 0.2-1.1-0.4-1.1-0.6 0-1.4 0.5-1.7 1.1-0.4 0.6-0.2 1.1 0.4 1.1 0.6 0 1.4-0.5 1.7-1.1zm189.2-88c0-0.6-0.5-1.1-1.1-1.1-0.6 0-1.1 0.5-1.1 1.1 0 0.6 0.5 1.1 1.1 1.1 0.6 0 1.1-0.5 1.1-1.1zm0.3-21.6c1-0.8 1.9-1.7 1.9-2.1 0-1.2-3.8-0.7-5.1 0.6-2.9 2.9-0.2 4.1 3.2 1.5zm-11.4-15.6c0.4-0.6 0.4-1.4 0.1-1.7-0.9-0.9-3.9 0.5-3.9 1.8 0 1.4 2.9 1.4 3.8 0zm-15.4-24.3c0-0.6-0.7-1.1-1.6-1.1-0.9 0-1.6 0.5-1.6 1.1 0 0.6 0.7 1.1 1.6 1.1 0.9 0 1.6-0.5 1.6-1.1z" style="fill:#ccc;stroke:#ccc"/><path d="m-1254.5 47.1c1.3-0.3 2.9-1.4 3.4-2.5 0.9-1.7 1.9-1.9 6.8-1.4 6.6 0.7 6.6 0.7 9.6-10.3 1-3.8 3-9 4.3-11.7 1.3-2.6 3.9-9.4 5.8-15.2 3-9 3.4-11.3 2.8-17-1.4-14.3-3.7-30.7-6.5-46.3-7.7-43.8-8.9-69.1-5.5-115 2.9-39.7 3.1-40.8 12.1-59.9 2.9-6.1 5.8-12.9 6.5-15.1 1.6-5 10.3-14.6 16.5-18.2 3.9-2.3 4.7-3.3 4.7-5.9 0-2.9 0.5-3.2 5.8-4.8 3.2-0.9 7.1-1.6 8.7-1.5 4.7 0.3 5.1 0.1 6.5-2.8 1.1-2.5 1.7-2.7 5.3-2.1 3.2 0.5 4.4 0.3 6-1.5 1.1-1.2 2.5-2.2 3.2-2.2 0.7 0 2-1 3-2.1 1-1.2 2.5-2.1 3.4-2.1 0.9 0 2.8-1.7 4.4-3.8 1.7-2.2 3.6-3.6 4.7-3.4 1 0.2 2.6-0.3 3.5-1.1 0.9-0.8 2.8-1.4 4.1-1.5 1.4-0.1 3.8-1.2 5.5-2.6 3.3-2.7 5.7-3 9.6-1.3 4.7 2.1 7.9 0.4 9.3-4.9 1.4-5.6 2.5-6.6 5.1-4.3 1 0.9 2.7 1.7 3.8 1.7 1.5 0 1.8-0.7 1.4-3.2-0.7-4.5 0.6-4.8 4.1-1 3.8 4 5.1 4 8.5 0 1.5-1.7 3.5-3.2 4.5-3.2 1 0 2.7-1 3.8-2.1 2.3-2.6 3.9-2.6 8.6-0.4 3.4 1.6 3.8 1.6 5.5 0 2.6-2.3 5.7-2.2 8.6 0.4 3.1 2.7 2.9 2.7 7.9-0.7 4.1-2.8 4.2-2.8 7.4-1 3.1 1.8 3.3 1.8 4.6-0.1 0.8-1.1 2.4-3 3.6-4.3 2.2-2.3 2.2-2.4 0.3-4.9-7-9-19.6-22.9-36.4-39.9-10.6-10.8-24.5-25.1-30.9-31.9l-11.6-12.3-9-2.3c-10.5-2.7-20.2-2.9-25.5-0.7-5 2.1-15.9 12.6-19.8 19.1-3.6 6.1-10.7 17.2-18.2 28.3-8.1 12.1-17.5 23-39.7 45.9-11.3 11.7-22.2 23.4-24.3 26-2.1 2.6-6.5 7.6-9.9 11.1-3.3 3.5-8.6 9.8-11.7 13.9-3.1 4.2-9.8 12-14.8 17.5-12 13-16.4 21.8-19.9 40.1-0.6 3.2-2.1 10.1-3.2 15.4-1.1 5.2-2.1 13.6-2.1 18.7 0 5-0.5 11.7-1.1 14.8-2.9 14.9-4.2 31.5-4.2 53.3 0 26.4 2.7 88 4.2 94.4 0.5 2.3 1.3 7.6 1.6 11.7 0.7 7.7 4.7 39.6 5.4 43.7 0.7 3.7 4.2 5 9.1 3.4 4.4-1.4 3.4-1.8 19.7 6.8 3.8 2 16 3.2 21.2 2.1z" fill="#800000"/></g></g></svg>